<svg width="25" height="25" viewBox="0 0 25 25" fill="none" xmlns="http://www.w3.org/2000/svg">
<path d="M25 12.5C25 19.4036 19.4036 25 12.5 25C5.59644 25 0 19.4036 0 12.5C0 5.59644 5.59644 0 12.5 0C19.4036 0 25 5.59644 25 12.5Z" fill="#E6E6E6"/>
<path d="M12.0141 14.317C12.3498 13.9524 12.6781 13.596 13.0062 13.2396C13.906 12.2623 14.8055 11.2848 15.7047 10.307C15.8785 10.1177 16.088 10.0069 16.359 10.036C16.4875 10.0452 16.6105 10.0883 16.7136 10.1603C16.8167 10.2324 16.8956 10.3303 16.941 10.4426C17.0507 10.6904 17.0052 10.9213 16.8229 11.1237C16.5197 11.4604 16.2098 11.7919 15.9029 12.1256C14.8049 13.3192 13.7073 14.5132 12.61 15.7073C12.406 15.9298 12.161 16.0591 11.8497 15.9733C11.6967 15.9305 11.5592 15.8498 11.4518 15.7398C10.0227 14.1977 8.59899 12.6513 7.18053 11.1006C6.91242 10.8085 6.94792 10.3959 7.2539 10.158C7.56746 9.91419 7.99442 9.95571 8.27518 10.2607C9.48217 11.5716 10.6887 12.8828 11.8948 14.1945C11.9303 14.233 11.968 14.2697 12.0141 14.317Z" fill="#A6A6A6"/>
</svg>
