<svg width="118" height="18" viewBox="0 0 151 22" fill="none" xmlns="http://www.w3.org/2000/svg">
<path d="M120.609 21.75H90.9273L93.8412 11.0658L93.8591 11L93.8412 10.9342L90.9273 0.25H120.609L123.541 11L120.609 21.75Z" stroke="#C4C4C4" stroke-width="0.5"/>
<path d="M90.6091 21.75H60.9273L63.8412 11.0658L63.8591 11L63.8412 10.9342L60.9273 0.25H90.6091L93.5409 11L90.6091 21.75Z" stroke="#C4C4C4" stroke-width="0.5"/>
<path d="M120.327 0.25H147.2C148.719 0.25 149.95 1.48122 149.95 3V19C149.95 20.5188 148.719 21.75 147.2 21.75H120.327L123.241 11.0658L123.259 11L123.241 10.9342L120.327 0.25Z" stroke="#C4C4C4" stroke-width="0.5"/>
<path d="M0 3C0 1.34315 1.34315 0 3 0H31L34 11L31 22H3C1.34315 22 0 20.6569 0 19V3Z" fill="#6653FE"/>
<path d="M31 0H61L64 11L61 22H31L34 11L31 0Z" fill="#BAB2FF"/>
</svg>
