<svg width="118" height="18" viewBox="0 0 169 22" fill="none" xmlns="http://www.w3.org/2000/svg">
<rect y="2" width="19.3758" height="4" fill="#6653FE"/>
<rect x="35.7376" y="2" width="19.3758" height="4" fill="#C4C4C4"/>
<rect x="71.2599" y="2" width="19.3758" height="4" fill="#C4C4C4"/>
<rect x="106.782" y="2" width="19.3758" height="4" fill="#C4C4C4"/>
<rect x="141.443" y="2" width="19.3758" height="4" fill="#C4C4C4"/>
<path d="M25.878 3.98875C25.6349 3.72014 25.3974 3.45753 25.1597 3.195C24.5082 2.47519 23.8565 1.75561 23.2047 1.03624C23.0785 0.897235 23.0046 0.729561 23.024 0.512806C23.0301 0.409998 23.0589 0.311575 23.1069 0.229095C23.1549 0.146616 23.2202 0.0835047 23.295 0.0471732C23.4603 -0.0405353 23.6142 -0.00419731 23.7491 0.14168C23.9736 0.384268 24.1946 0.632126 24.4171 0.87771C25.2128 1.75607 26.0088 2.63417 26.8049 3.51199C26.9532 3.67517 27.0394 3.87123 26.9822 4.12026C26.9537 4.24262 26.8999 4.35266 26.8266 4.43859C25.7985 5.58182 24.7675 6.72081 23.7337 7.85557C23.539 8.07006 23.2639 8.04166 23.1053 7.79688C22.9428 7.54603 22.9705 7.20446 23.1738 6.97986C24.0477 6.01426 24.9219 5.04903 25.7963 4.08416C25.822 4.05577 25.8465 4.02561 25.878 3.98875Z" fill="#6653FE"/>
<path d="M61.878 3.98875C61.6349 3.72014 61.3974 3.45753 61.1597 3.195C60.5082 2.47519 59.8565 1.75561 59.2047 1.03624C59.0785 0.897235 59.0046 0.729561 59.024 0.512806C59.0301 0.409998 59.0589 0.311575 59.1069 0.229095C59.1549 0.146616 59.2202 0.0835047 59.295 0.0471732C59.4603 -0.0405353 59.6142 -0.00419731 59.7491 0.14168C59.9736 0.384268 60.1946 0.632126 60.4171 0.87771C61.2128 1.75607 62.0088 2.63417 62.8049 3.51199C62.9532 3.67517 63.0394 3.87123 62.9822 4.12026C62.9537 4.24262 62.8999 4.35266 62.8266 4.43859C61.7985 5.58182 60.7675 6.72081 59.7337 7.85557C59.539 8.07006 59.2639 8.04166 59.1053 7.79688C58.9428 7.54603 58.9705 7.20446 59.1738 6.97986C60.0477 6.01426 60.9219 5.04903 61.7963 4.08416C61.822 4.05577 61.8465 4.02561 61.878 3.98875Z" fill="#C4C4C4"/>
<path d="M98.5975 3.98875C98.2937 3.72014 97.9967 3.45753 97.6997 3.195C96.8852 2.47519 96.0706 1.75561 95.2559 1.03624C95.0981 0.897235 95.0058 0.729561 95.03 0.512806C95.0377 0.409998 95.0736 0.311575 95.1336 0.229095C95.1936 0.146616 95.2752 0.0835047 95.3688 0.0471732C95.5754 -0.0405353 95.7677 -0.00419731 95.9364 0.14168C96.217 0.384268 96.4932 0.632126 96.7713 0.87771C97.766 1.75607 98.761 2.63417 99.7561 3.51199C99.9415 3.67517 100.049 3.87123 99.9777 4.12026C99.9421 4.24262 99.8749 4.35266 99.7832 4.43859C98.4981 5.58182 97.2094 6.72081 95.9172 7.85557C95.6737 8.07006 95.3299 8.04166 95.1317 7.79688C94.9285 7.54603 94.9631 7.20446 95.2172 6.97986C96.3096 6.01426 97.4024 5.04903 98.4954 4.08416C98.5275 4.05577 98.5581 4.02561 98.5975 3.98875Z" fill="#C4C4C4"/>
<path d="M132.878 3.98875C132.635 3.72014 132.397 3.45753 132.16 3.195C131.508 2.47519 130.857 1.75561 130.205 1.03624C130.078 0.897235 130.005 0.729561 130.024 0.512806C130.03 0.409998 130.059 0.311575 130.107 0.229095C130.155 0.146616 130.22 0.0835047 130.295 0.0471732C130.46 -0.0405353 130.614 -0.00419731 130.749 0.14168C130.974 0.384268 131.195 0.632126 131.417 0.87771C132.213 1.75607 133.009 2.63417 133.805 3.51199C133.953 3.67517 134.039 3.87123 133.982 4.12026C133.954 4.24262 133.9 4.35266 133.827 4.43859C132.798 5.58182 131.768 6.72081 130.734 7.85557C130.539 8.07006 130.264 8.04166 130.105 7.79688C129.943 7.54603 129.97 7.20446 130.174 6.97986C131.048 6.01426 131.922 5.04903 132.796 4.08416C132.822 4.05577 132.846 4.02561 132.878 3.98875Z" fill="#C4C4C4"/>
<path d="M167.878 3.98875C167.635 3.72014 167.397 3.45753 167.16 3.195C166.508 2.47519 165.857 1.75561 165.205 1.03624C165.078 0.897235 165.005 0.729561 165.024 0.512806C165.03 0.409998 165.059 0.311575 165.107 0.229095C165.155 0.146616 165.22 0.0835047 165.295 0.0471732C165.46 -0.0405353 165.614 -0.00419731 165.749 0.14168C165.974 0.384268 166.195 0.632126 166.417 0.87771C167.213 1.75607 168.009 2.63417 168.805 3.51199C168.953 3.67517 169.039 3.87123 168.982 4.12026C168.954 4.24262 168.9 4.35266 168.827 4.43859C167.798 5.58182 166.768 6.72081 165.734 7.85557C165.539 8.07006 165.264 8.04166 165.105 7.79688C164.943 7.54603 164.97 7.20446 165.174 6.97986C166.048 6.01426 166.922 5.04903 167.796 4.08416C167.822 4.05577 167.846 4.02561 167.878 3.98875Z" fill="#C4C4C4"/>
</svg>
