<svg xmlns="http://www.w3.org/2000/svg" xmlns:xlink="http://www.w3.org/1999/xlink" viewBox="0 0 700 320" xmlns:v="https://vecta.io/nano"><style><![CDATA[.V{clip-path:url(#B)}.W{fill:#fff}.X{clip-path:url(#E)}.Y{fill:#ffd4a5}.Z{fill:#df9037}.a{fill-opacity:.15}.b{fill-rule:evenodd}.c{fill:#f1f1f1}.d{fill:#ffaf45}.e{fill:#50447e}.f{fill:#f2d266}.g{fill:#699b9f}.h{fill:#ac6617}.i{fill:#c4c4c4}.j{fill:#362c30}.k{fill:#e3e3e3}.l{fill:#bec1cc}.m{fill:#df6175}.n{fill:#8758e7}]]></style><defs><path id="A" d="M0 0h700v320H0z"/></defs><clipPath id="B"><use xlink:href="#A"/></clipPath><path d="M-40 0h781v320H-40z" class="Z"/><path d="M-44-10h809v340H-44z" fill="#dd8731" class="V"/><defs><filter  filterUnits="userSpaceOnUse" x="-51.4" y="-65.7" width="795.5" height="436.6"><feColorMatrix values="1 0 0 0 0  0 1 0 0 0  0 0 1 0 0  0 0 0 1 0"/></filter></defs><g class="W"><path d="M198.8 170h-22v9h22v-9zm-12 12h-23v9h23v-9zm-13-12h-22v9h22v-9zm156 111h-22v9h22v-9zM408 58h-25v10h25V58zm13 14h-25v9h25v-9zM94 70H70v10h24V70zm5 198H76v9h23v-9zm-11 12H64v9h24v-9z" fill-opacity=".1" class="V"/><path d="M63 88h154a4.95 4.95 0 0 1 5 5v93a4.95 4.95 0 0 1-5 5H63a4.95 4.95 0 0 1-5-5V93a4.95 4.95 0 0 1 5-5zm24 180h136a4.95 4.95 0 0 1 5 5v41a4.95 4.95 0 0 1-5 5H87a4.95 4.95 0 0 1-5-5v-41a4.95 4.95 0 0 1 5-5z" fill-opacity=".06" class="V"/></g><g class="V a"><path d="M265.6 138.7H120.3c-7.6 0-13.8 2.5-13.8 5.6v101.5c0 3.1 6.2 5.6 13.8 5.6h145.3c7.6 0 13.8-2.5 13.8-5.6V144.2c0-3-6.2-5.5-13.8-5.5z"/></g><path d="M117.5 131.2H282a4.95 4.95 0 0 1 5 5v104.3a4.95 4.95 0 0 1-5 5H117.5a4.95 4.95 0 0 1-5-5V136.2c0-2.8 2.3-5 5-5z" fill="#dc8c31" class="V"/><g class="b"><path d="M120.7 121.9h158.1c2.2 0 4.2.9 5.8 2.6 1.5 1.6 2.4 3.9 2.4 6.2v8.2H112.5v-8.2c0-2.3.9-4.6 2.4-6.2 1.6-1.7 3.6-2.6 5.8-2.6z" fill="#c57215" class="V"/><path d="M122.6 128.1c.6 0 1.2.2 1.6.7.4.4.7 1 .7 1.6s-.2 1.2-.7 1.6c-.4.4-1 .7-1.6.7-.3 0-.6-.1-.9-.2s-.5-.3-.8-.5c-.2-.2-.4-.5-.5-.8s-.2-.6-.2-.9.1-.6.2-.9.3-.5.5-.8c.2-.2.5-.4.8-.5h.9z" fill="#e8082b" class="V"/><path d="M130.3 128.1c.6 0 1.2.2 1.6.7.4.4.7 1 .7 1.6s-.2 1.2-.7 1.6c-.4.4-1 .7-1.6.7-.3 0-.6-.1-.9-.2s-.5-.3-.8-.5c-.2-.2-.4-.5-.5-.8s-.2-.6-.2-.9.1-.6.2-.9.3-.5.5-.8c.2-.2.5-.4.8-.5h.9z" class="V f"/><path d="M138 128.1c.6 0 1.2.2 1.6.7.4.4.7 1 .7 1.6s-.2 1.2-.7 1.6c-.4.4-1 .7-1.6.7-.3 0-.6-.1-.9-.2s-.5-.3-.8-.5c-.2-.2-.4-.5-.5-.8s-.2-.6-.2-.9.1-.6.2-.9.3-.5.5-.8c.2-.2.5-.4.8-.5h.9z" class="V g"/></g><path d="M137 174.5h31.2l1.8 6.1-1.8 6.1H137v-12.2z" fill="#be6b0d" class="V"/><path d="M137 174.5h.9v12.3h-.9v-12.3z" class="V h"/><g fill="#dc8c31"><path d="M137 199h31.1v12.3H137V199z" class="V"/><path d="M137 211.3h31.1v12.3H137v-12.3zm0-49h31.1v12.3H137v-12.3zm0 24.5h31.1V199H137v-12.2z" class="V"/></g><path d="M148.8 167.4h7.1v1.9h-7.1zm0 24.6h7.1v1.9h-7.1zm0 12.2h7.1v1.9h-7.1zm0 12.3h7.1v1.9h-7.1z" class="V" fill="#f1a54f"/><path d="M201.2 166.5h54.2v8.6h-54.2zm0 15.7h54.2v8.6h-54.2zm0 15.7h54.2v8.6h-54.2zm0 15.7h54.2v8.6h-54.2z" class="V" fill="#e79335"/><path d="M140.6 149.9h16c1.3 0 2.3 1.1 2.3 2.3h0c0 1.3-1.1 2.3-2.3 2.3h-16c-1.3 0-2.3-1.1-2.3-2.3h0c0-1.2 1-2.3 2.3-2.3z" class="V W"/><path d="M164.9 149.9h16c1.3 0 2.3 1.1 2.3 2.3h0c0 1.3-1.1 2.3-2.3 2.3h-16c-1.3 0-2.3-1.1-2.3-2.3h0c0-1.2 1-2.3 2.3-2.3z" fill="#be6b0d" class="V"/><path d="M189.3 149.9h16c1.3 0 2.3 1.1 2.3 2.3h0c0 1.3-1.1 2.3-2.3 2.3h-16c-1.3 0-2.3-1.1-2.3-2.3h0c-.1-1.2 1-2.3 2.3-2.3zm24.3 0h16c1.3 0 2.3 1.1 2.3 2.3h0c0 1.3-1.1 2.3-2.3 2.3h-16c-1.3 0-2.3-1.1-2.3-2.3h0c-.1-1.2 1-2.3 2.3-2.3zm23.4 0h16c1.3 0 2.3 1.1 2.3 2.3h0c0 1.3-1.1 2.3-2.3 2.3h-16c-1.3 0-2.3-1.1-2.3-2.3h0c-.1-1.2 1-2.3 2.3-2.3z" class="V" fill="#f1a54f"/><g class="V"><defs><path id="D" d="M20.5 197.1h184V321h-184z"/></defs><clipPath id="E"><use xlink:href="#D"/></clipPath><path d="M29.2 220.2h154.1a4.95 4.95 0 0 1 5 5v97.5a4.95 4.95 0 0 1-5 5H29.2a4.95 4.95 0 0 1-5-5v-97.5a4.95 4.95 0 0 1 5-5z" class="X a"/><path d="M36 223.1h154a4.95 4.95 0 0 1 5 5v97.5a4.95 4.95 0 0 1-5 5H36a4.95 4.95 0 0 1-5-5v-97.5c0-2.7 2.2-5 5-5z" class="W X"/><g class="b"><path d="M38.6 214.4h148.7c2 0 4 .9 5.4 2.4s2.3 3.6 2.3 5.8v7.7H31v-7.7c0-2.2.8-4.3 2.3-5.8 1.4-1.5 3.3-2.4 5.3-2.4z" class="X l"/><path d="M40.4 220.2c.6 0 1.1.2 1.5.6s.6 1 .6 1.5c0 .6-.2 1.1-.6 1.5s-1 .6-1.5.6c-.3 0-.6-.1-.8-.2-.3-.1-.5-.3-.7-.5s-.4-.4-.5-.7-.2-.5-.2-.8.1-.6.2-.8a3.04 3.04 0 0 1 .5-.7c.2-.2.4-.4.7-.5.2.1.5 0 .8 0z" class="X m"/><path d="M47.7 220.2c.6 0 1.1.2 1.5.6s.6 1 .6 1.5c0 .6-.2 1.1-.6 1.5s-1 .6-1.5.6c-.3 0-.6-.1-.8-.2-.3-.1-.5-.3-.7-.5s-.4-.4-.5-.7-.2-.5-.2-.8.1-.6.2-.8a3.04 3.04 0 0 1 .5-.7c.2-.2.4-.4.7-.5.2.1.5 0 .8 0z" class="X f"/><path d="M54.9 220.2c.6 0 1.1.2 1.5.6s.6 1 .6 1.5c0 .6-.2 1.1-.6 1.5s-1 .6-1.5.6c-.3 0-.6-.1-.8-.2-.3-.1-.5-.3-.7-.5s-.4-.4-.5-.7-.2-.5-.2-.8.1-.6.2-.8c.1-.3.3-.5.5-.7s.4-.4.7-.5c.2.1.5 0 .8 0z" class="X g"/></g><path d="M54 263.9h29.4l1.7 5.8-1.7 5.8H54v-11.6z" class="X Z"/><path d="M54 263.9h.9v11.5H54v-11.5z" class="X h"/><g class="W"><path d="M54 286.9h29.3v11.5H54v-11.5zm0 11.6h29.3V310H54v-11.5zm0-46.2h29.3v11.5H54v-11.5z" class="X"/><path d="M54 275.4h29.3v11.5H54v-11.5z" class="X"/></g><path d="M65.1 257.2h6.7v1.8h-6.7zm0 23.1h6.7v1.8h-6.7zm0 11.5h6.7v1.8h-6.7zm0 11.5h6.7v1.8h-6.7z" class="X i"/><path d="M114.3 256.4h50.9v8h-50.9zm0 14.7h50.9v8h-50.9zm0 14.8h50.9v8h-50.9zm0 14.7h50.9v8h-50.9z" class="X c"/><path d="M66.5 242.9H146a1.79 1.79 0 0 1 1.8 1.8h0a1.79 1.79 0 0 1-1.8 1.8H66.5a1.79 1.79 0 0 1-1.8-1.8h0a1.79 1.79 0 0 1 1.8-1.8z" fill="#eee" class="X"/><path d="M64.7 244.7a1.79 1.79 0 0 1 1.8-1.8h14.7v3.5H66.5c-1 .1-1.8-.7-1.8-1.7z" class="X Z"/><g class="X h"><circle cx="80.7" cy="244.7" r="3.8"/></g><circle cx="80.7" cy="244.7" r="2.3" class="W X"/><path d="M81.3 240v.6h-3.7v-.5l1.9-2.1c.2-.3.4-.5.5-.6.1-.2.2-.3.3-.5.1-.1.1-.3.1-.4 0-.2 0-.4-.1-.5-.1-.2-.2-.3-.3-.4s-.3-.1-.5-.1c-.3 0-.5.1-.6.1a.78.78 0 0 0-.4.4c-.1.2-.1.4-.1.6h-.7c0-.3.1-.6.2-.9a.9.9 0 0 1 .6-.6c.3-.2.6-.2 1-.2s.7.1.9.2c.3.1.5.3.6.5s.2.5.2.8c0 .2 0 .3-.1.5s-.1.3-.2.5-.2.3-.3.5-.3.3-.4.5l-1.5 1.7h2.6zm4.4-2.7v.9c0 .5 0 .9-.1 1.2s-.2.6-.4.8-.3.3-.6.4c-.2.1-.5.1-.7.1s-.4 0-.6-.1-.4-.1-.5-.3c-.1-.1-.3-.3-.4-.5s-.2-.4-.2-.7c-.1-.3-.1-.6-.1-1v-.9c0-.5 0-.9.1-1.2s.2-.6.4-.8.3-.3.6-.4c.2-.1.5-.1.7-.1s.4 0 .6.1.4.1.5.3c.1.1.3.3.4.5s.2.4.2.7.1.7.1 1zm-.8 1v-1.1-.7c0-.2-.1-.4-.1-.5-.1-.1-.1-.2-.2-.3s-.2-.1-.3-.2c-.1 0-.2-.1-.4-.1s-.3 0-.5.1l-.3.3c-.1.1-.2.3-.2.5s-.1.5-.1.8v1.1.7c0 .2.1.4.1.5.1.1.1.3.2.3.1.1.2.2.3.2s.2.1.4.1.3 0 .5-.1l.3-.3c.1-.1.2-.3.2-.6.1-.1.1-.4.1-.7zm1.6-2v-.3c0-.2 0-.4.1-.6a.78.78 0 0 1 .4-.4c.2-.1.4-.2.6-.2s.5.1.6.2a.78.78 0 0 1 .4.4c.1.2.1.4.1.6v.3c0 .2 0 .4-.1.6a.78.78 0 0 1-.4.4c-.2.1-.4.2-.6.2s-.5-.1-.6-.2a.78.78 0 0 1-.4-.4c0-.1-.1-.3-.1-.6zm.6-.3v.3c0 .1 0 .2.1.3 0 .1.1.2.2.3s.2.1.4.1c.1 0 .3 0 .3-.1.1-.1.2-.2.2-.3s.1-.2.1-.3v-.3c0-.1 0-.2-.1-.3 0-.1-.1-.2-.2-.3s-.2-.1-.3-.1-.3 0-.3.1c-.1.1-.2.2-.2.3-.2.1-.2.2-.2.3zm2.2 3.5v-.3c0-.2 0-.4.1-.6a.78.78 0 0 1 .4-.4c.2-.1.4-.2.6-.2s.5.1.6.2a.78.78 0 0 1 .4.4c.1.2.1.4.1.6v.3c0 .2 0 .4-.1.6a.78.78 0 0 1-.4.4c-.2.1-.4.2-.6.2s-.5-.1-.6-.2a.78.78 0 0 1-.4-.4c-.1-.1-.1-.3-.1-.6zm.5-.3v.3c0 .1 0 .2.1.3 0 .1.1.2.2.3s.2.1.4.1c.1 0 .3 0 .3-.1.1-.1.2-.2.2-.3s.1-.2.1-.3v-.3c0-.1 0-.2-.1-.3 0-.1-.1-.2-.2-.3s-.2-.1-.4-.1c-.1 0-.3 0-.3.1-.1.1-.2.2-.2.3s-.1.2-.1.3zm.8-3.4l-2.8 4.4-.4-.3 2.8-4.4.4.3z" class="X i"/></g><g class="W"><path d="   M470,88h108c2.8,0,5,2.2,5,5v68c0,2.8-2.2,5-5,5H470c-2.8,0-5-2.2-5-5V93C465,90.2,467.2,88,470,88z" fill-opacity=".08" class="V"/><path d="   M570,130h106c2.8,0,5,2.2,5,5v66c0,2.8-2.2,5-5,5H570c-2.8,0-5-2.2-5-5v-66C565,132.2,567.2,130,570,130z" fill-opacity=".07" class="V"/><path d="   M527,214h60c2.8,0,5,2.2,5,5v35c0,2.8-2.2,5-5,5h-60c-2.8,0-5-2.2-5-5v-35C522,216.2,524.2,214,527,214z" fill-opacity=".08" class="V"/><path d="M418.7 210.2v-.4s-.1-.6-.6-.6h-13.4c-.3 0-.7.1-.9.4-.2.2-.4.6-.4.9v11.7c0 .2.1.5.2.7s.3.4.5.5l-1.1.3v-58.4h.2v-.3h125.6v.2h.2v8.8h-.4v-7.4c0-.3-.1-.7-.4-.9-.2-.2-.6-.4-.9-.4h-12.8c-.3 0-.7.1-.9.4-.2.2-.4.6-.4.9v7.4h-.4v-7.4c0-.3-.1-.7-.4-.9-.2-.2-.6-.4-.9-.4h-12.8c-.3 0-.7.1-.9.4-.2.2-.4.6-.4.9v7.4h-.3v-7.4c0-.3-.1-.7-.4-.9-.2-.2-.6-.4-.9-.4H483c-.3 0-.7.1-.9.4-.2.2-.4.6-.4.9v7.4h-.4v-7.4c0-.3-.1-.7-.4-.9-.2-.2-.6-.4-.9-.4h-12.8c-.3 0-.7.1-.9.4-.2.2-.4.6-.4.9v7.4h-.4v-7.4c0-.3-.1-.7-.4-.9-.2-.2-.6-.4-.9-.4h-12.8c-.3 0-.7.1-.9.4-.2.2-.4.6-.4.9v4.8c-.1 0-.2.1-.4.1v-4.8c0-.3-.1-.7-.4-.9-.2-.2-.6-.4-.9-.4H436c-.3 0-.7.1-.9.4-.2.2-.4.6-.4.9v3.6h-.4v-3.6c0-.3-.1-.7-.4-.9-.2-.2-.6-.4-.9-.4h-12.8c-.3 0-.7.1-.9.4-.2.2-.4.6-.4.9v5.6l-.4.1v-5.7c0-.3-.1-.7-.4-.9-.2-.2-.6-.4-.9-.4h-12.7c-.3 0-.7.1-.9.4-.2.2-.4.6-.4.9v11.7c0 .3.1.7.4.9.2.2.6.4.9.4h8.7v.4h-8.7c-.3 0-.7.1-.9.4-.2.2-.4.6-.4.9v11.7c0 .3.1.7.4.9.2.2.6.4.9.4h8.6v.4h-8.6c-.3 0-.7.1-.9.4-.2.2-.4.6-.4.9v11.7c0 .3.1.7.4.9.2.2.6.4.9.4H420c.2 0 .4-.1.6-.2l.3.9c-.2-.2-.6-.4-.9-.4h-.5c-.1.1-.3.3-.3.5-.1.2-.1.4-.1.6v10.4h-.4v-10.5-.2zm38.4 42.4h7.4c.3 0 .7-.1.9-.4.2-.2.4-.6.4-.9v-11.7c0-.3-.1-.7-.4-.9-.2-.2-.6-.4-.9-.4h-8.4v-.4h8.5c.3 0 .7-.1.9-.4.2-.2.4-.6.4-.9v-4.9h.4v4.9c0 .3.1.7.4.9.2.2.6.4.9.4h12.8c.3 0 .7-.1.9-.4.2-.2.4-.6.4-.9v-6.2h.4v6.3c0 .3.1.7.4.9.2.2.6.4.9.4h12.8c.3 0 .7-.1.9-.4.2-.2.4-.6.4-.9v-7.5h.4v7.5c0 .3.1.7.4.9.2.2.6.4.9.4H512c.3 0 .7-.1.9-.4.2-.2.4-.6.4-.9v-8.9h.4v8.9c0 .3.1.7.4.9.2.2.6.4.9.4h12.8c.3 0 .7-.1.9-.4.2-.2.4-.6.4-.9v-10.2h.4v26.3h-.2v.2h-71.6l-.6-.4h0zm71.4-1.3v-11.7c0-.3-.1-.7-.4-.9-.2-.2-.6-.4-.9-.4h-12.8c-.3 0-.7.1-.9.4-.2.2-.4.6-.4.9v11.7c0 .3.1.7.4.9.2.2.6.4.9.4h12.8c.3 0 .7-.1.9-.4.3-.2.4-.5.4-.9zm-15.7 0v-11.7c0-.3-.1-.7-.4-.9-.2-.2-.6-.4-.9-.4h-12.8c-.3 0-.7.1-.9.4-.2.2-.4.6-.4.9v11.7c0 .3.1.7.4.9.2.2.6.4.9.4h12.8c.3 0 .7-.1.9-.4.3-.2.4-.5.4-.9zm-15.7 0v-11.7c0-.3-.1-.7-.4-.9-.2-.2-.6-.4-.9-.4H483c-.3 0-.7.1-.9.4-.2.2-.4.6-.4.9v11.7c0 .3.1.7.4.9.2.2.6.4.9.4h12.9c.3 0 .7-.1.9-.4.3-.2.4-.5.3-.9h0zm-15.6 0v-11.7c0-.3-.1-.7-.4-.9-.2-.2-.6-.4-.9-.4h-12.8c-.3 0-.7.1-.9.4-.2.2-.4.6-.4.9v11.7c0 .3.1.7.4.9.2.2.6.4.9.4h12.8c.3 0 .7-.1.9-.4.2-.2.4-.5.4-.9zm-23.4-27.5v-.4h-5.9v.4h5.9zm0-14.6v-.4h-4.6v.4h4.6zm0-14.6v-.4h-4.8c0 .1-.1.2-.1.4h4.9zm0-14.6v-.4h-.6l.1.4h.5z" class="V b"/></g><g class="V a"><path d="M582 95h-85c-4.4 0-8 1.6-8 3.5v64c0 1.9 3.6 3.5 8 3.5h85c4.4 0 8-1.6 8-3.5v-64c0-1.9-3.6-3.5-8-3.5z"/></g><path d="M489.9 89.7h98.2a4.95 4.95 0 0 1 5 5v60.8a4.95 4.95 0 0 1-5 5h-98.2a4.95 4.95 0 0 1-5-5V94.7c0-2.7 2.3-5 5-5z" class="V W"/><g class="b"><path d="M490 84h98c1.3 0 2.6.6 3.6 1.6.9 1 1.5 2.4 1.5 3.8v5.1H484.9v-5.1c0-1.4.5-2.8 1.5-3.8s2.2-1.6 3.6-1.6z" class="V l"/><path d="M491.1 87.8c.4 0 .7.2 1 .4s.4.6.4 1-.2.7-.4 1c-.3.3-.6.4-1 .4-.2 0-.4 0-.5-.1-.2-.1-.3-.2-.5-.3-.1-.1-.2-.3-.3-.5s-.1-.4-.1-.6 0-.4.1-.6.2-.3.3-.5c.1-.1.3-.2.5-.3.2.2.3.1.5.1z" class="V m"/><path d="M495.9 87.8c.4 0 .7.2 1 .4.3.3.4.6.4 1s-.2.7-.4 1c-.3.3-.6.4-1 .4-.2 0-.4 0-.6-.1s-.3-.2-.5-.3c-.1-.1-.2-.3-.3-.5s-.1-.4-.1-.6 0-.4.1-.6.2-.3.3-.5c.1-.1.3-.2.5-.3.2.2.4.1.6.1z" class="V f"/><path d="M500.7 87.8c.4 0 .7.2 1 .4.3.3.4.6.4 1s-.2.7-.4 1c-.3.3-.6.4-1 .4-.2 0-.4 0-.6-.1s-.3-.2-.5-.3c-.1-.1-.2-.3-.3-.5s-.1-.4-.1-.6 0-.4.1-.6.2-.3.3-.5c.1-.1.3-.2.5-.3.2.2.4.1.6.1z" class="V g"/></g><path d="M493.5 109.5h21l1.2 4.1-1.2 4.1h-21v-8.2z" class="V Z"/><path d="M493.5 109.5h.6v8.2h-.6v-8.2z" class="V h"/><g class="W"><path d="M493.5 125.9h20.9v8.2h-20.9v-8.2zm0 8.3h20.9v8.2h-20.9v-8.2zm0-33h20.9v8.2h-20.9v-8.2z" class="V"/><path d="M493.5 117.7h20.9v8.2h-20.9v-8.2z" class="V"/></g><path d="M501.4 104.7h4.7v1.3h-4.7zm0 16.5h4.7v1.3h-4.7zm0 8.2h4.7v1.3h-4.7zm0 8.2h4.7v1.3h-4.7z" class="V i"/><path d="M536.6 104.1H573v5.7h-36.4zm0 10.5H573v5.7h-36.4zm0 10.6H573v5.7h-36.4zm0 10.5H573v5.7h-36.4z" class="V c"/><g class="V a"><path d="M630 119.6h-79.3c-4.1 0-7.5 1.5-7.5 3.4v62.5c0 1.9 3.4 3.4 7.5 3.4H630c4.1 0 7.5-1.5 7.5-3.4V123c0-1.9-3.4-3.4-7.5-3.4z"/></g><path d="M551.9 114.2H650a4.95 4.95 0 0 1 5 5V180a4.95 4.95 0 0 1-5 5h-98.2a4.95 4.95 0 0 1-5-5v-60.8c.1-2.7 2.3-5 5.1-5z" class="V W"/><g class="b"><path d="M551.9 108.5h98c1.3 0 2.6.6 3.6 1.6.9 1 1.5 2.4 1.5 3.8v5.1H546.9v-5.1c0-1.4.5-2.8 1.5-3.8.9-1 2.2-1.6 3.5-1.6z" class="V l"/><path d="M553.1 112.3c.4 0 .7.2 1 .4.3.3.4.6.4 1s-.2.7-.4 1c-.3.3-.6.4-1 .4-.2 0-.4 0-.6-.1s-.3-.2-.5-.3c-.1-.1-.2-.3-.3-.5s-.1-.4-.1-.6 0-.4.1-.6.2-.3.3-.5c.1-.1.3-.2.5-.3.2.2.4.1.6.1z" class="V m"/><path d="M557.9 112.3c.4 0 .7.2 1 .4.3.3.4.6.4 1s-.2.7-.4 1c-.3.3-.6.4-1 .4-.2 0-.4 0-.5-.1-.2-.1-.3-.2-.5-.3-.1-.1-.2-.3-.3-.5s-.1-.4-.1-.6 0-.4.1-.6.2-.3.3-.5c.1-.1.3-.2.5-.3.1.2.3.1.5.1z" class="V f"/><path d="M562.7 112.3c.4 0 .7.2 1 .4.3.3.4.6.4 1s-.2.7-.4 1c-.3.3-.6.4-1 .4-.2 0-.4 0-.5-.1-.2-.1-.3-.2-.5-.3-.1-.1-.2-.3-.3-.5s-.1-.4-.1-.5c0-.2 0-.4.1-.6s.2-.3.3-.5c.1-.1.3-.2.5-.3.1.1.3 0 .5 0z" class="V g"/></g><path d="M592.2 125.1h48.1v5.7h-48.1zm0 10.6h48.1v5.7h-48.1zm0 10.5h48.1v5.7h-48.1zm0 10.5h48.1v5.7h-48.1z" class="V c"/><g class="V"><defs><path id="F" d="M572 165h87v143h-87z"/></defs><clipPath id="G"><use xlink:href="#F"/></clipPath><g clip-path="url(#G)"><g class="Y"><path d="M631.2 283.9v10.7h13.5v-14.1l-13.5 3.4zm-35.1-4l-2.8 10.4 13 3.6 3.7-13.6-13.9-.4z"/></g><path d="M634.9 168.8s3.5-5.9 9-3 4.9 8.8 9.1 10.2 7.6 5 5.2 9.7c-2 3.9-7.6 2.7-7.6 2.7s-3.4 5.9-9.5 3.9-8.8-5.2-8.2-10.3c.7-5.2 2-13.2 2-13.2z"/><path d="M625 177.4s-3.3-4.9 3.4-8.7c6.6-3.8 11.5 1.4 11.5 4.2.1.8-.1 1.5-.3 2.2-.3.7-.7 1.4-1.2 1.9 0 0 .6 6.1-5.2 5.7-1.7-.1-3.3-.7-4.8-1.6-1.4-.9-2.5-2.2-3.4-3.7z"/><path d="M633.8 181.8l.1 4.9s-.8 1.4-3.7 1.8c-2.1.2-2.9-.2-2.9-.2l.2-2.5.2-2.4 5.1-1.3 1-.3z" class="Y"/><path d="M633.8 181.5c0 .2-.1.3-.1.5-1 2.5-4.8 3.5-6.1 3.7l.2-2.4 6-1.8z"/><path d="M626.5 172s-2.4 6.2-1.3 9.7c1.1 3.4 4.2 2.7 6 2 1-.4 2-1.1 2.6-1.9.5.1 1.1.1 1.6-.1s.9-.6 1.2-1c1.1-1.7.3-3.5-.7-3.9-.4-.1-.7-.1-1.1 0s-.7.2-1 .4l.9-1.8c-.1-.1-4.3-9.1-8.2-3.4z" class="Y"/><path d="M625.5 175.1c.1-1.1.6-2 1.3-2.8 1.2-1.4 2.3-1.2 2.3-1.2s-1.8 4 1.2 5.4c2.2 1 3.5.5 3.5.5l3.1-3.1-6.1-5.1c0 .1-5.7-.7-5.3 6.3z"/><path d="M615 176l11.9 16-11.4 6.8-7.4-19.8 6.9-3z" class="Y"/><path d="M597.8 191.9s-.2-4.5-1.6-6.4c-1.4-1.8-3.7-3.2-4.3-2.2-.5 1.1 1.1 2.6.9 3.2-.3.6-2 .3-4.5-.6-2.6-.9-4.3-3.9-4.3-3.9-.3.7-.4 1.5-.3 2.3.1.6.2 1.1.5 1.7 0 0-.5-1.2-.5 1 0 .4.1.7.3 1.1.2.3.4.6.7.9 0 0-.8.9.9 3 1.6 2.1 6.1 4 6.1 4s5 12.4 13.3 15.7c2.4 1 4.9 1.4 7.5 1.2s5-1 7.2-2.3l-2.6-13.6c-.1-.2-8.9 3-19.3-5.1z" fill="#ffd5a5"/><path d="M588.2 188.5h0c-2.1-.4-4.3-2.8-4.4-2.9 0 0-.1-.1-.1-.2s0-.1.1-.2l.1-.1h.1.1s.1 0 .1.1c0 0 2.2 2.3 4.1 2.7h.1l.1.1v.1.1c0 .1 0 .1-.1.1-.1.2-.1.2-.2.2zm-.4 2.2h0c-1.3-.2-2.5-.8-3.4-1.7v-.1-.1-.1l.1-.1h.1.1.1l.1.1c.8.9 1.9 1.4 3.1 1.6h.1l.1.1v.1.1c0 .1 0 .1-.1.1h-.3z"/><g class="d"><path d="M650.4 250.9l-.1 2.6c-.7 16.3-2.8 32.8-2.8 32.8l-22.3.8 4.7-38.9.2-1.7-16.8 41.1-23.1-1.4s5-20.8 14-37.5a305.72 305.72 0 0 1 20-31.6l19.9-7.7s3 3.7 5.6 21.5c.2 1.2.3 2.5.4 3.8l.3 5.3v.5c.1 3.2.1 6.8 0 10.4zm-12.9-73h-.1l-.1-.1v-.1-.1-.1c3.6-4.6-1.1-8.6-1.3-8.8 0 0-.1-.1-.1-.2s0-.1.1-.2l.1-.1h.1.1s.1 0 .1.1c.1 0 5.3 4.5 1.4 9.4 0 0-.1 0-.1.1-.1.1-.2.1-.2.1z"/></g><path d="M611.6 196.9s8.8-10 19.4-10.6 14.2 4.5 14.7 7c.5 2.4 1.4 20 .8 21.2s-5 3.2-12.1 3.7-10.8-.4-11.3-.8-1.1-5.8-1.1-5.8l-6 1.6-4.4-16.3z" class="n"/><path d="M633.8 182.4s-3 6.8.1 9.5 7.7 1 7.7 1 1.6 1 4.5 0c1.9-.7 3.4-2.1 4.4-3.8l-16.7-6.7z"/><path d="M615 176s-3-4.7-4.5-5.8c-1.5-1-9.9-4.4-10.7-3.6s4.1 4.2 4.1 4.2c-.2 0-.4.2-.6.3-.2.2-.3.3-.4.6-.1.2-.1.4 0 .6 0 .2.1.4.2.6 0 0-1 0-1.3.7-.1.2-.1.5-.1.8s.1.5.3.7c0 0 1.9 3.6 3 3.6 1.1.1.9-1.9.9-1.9.2 1 .7 2 1.4 2.8 1 1 2.9 1.1 4.9 0 1.9-1 2.8-3.6 2.8-3.6z" class="Y"/><path d="M612.7 179.1c-2.3-.2-3.1-2.7-3.2-3.4-.8.2-2.4.4-2.8-.2-.1-.1-.1-.2-.1-.4 0-.1 0-.3.1-.4.7-1.4 3.5-2.6 3.6-2.7h.2c.1 0 .1.1.1.1v.2c0 .1-.1.1-.1.1s-2.8 1.3-3.4 2.5c0 .1-.1.2 0 .2.2.3 1.5.2 2.6-.1h.1.1l.1.1v.1s.6 3 2.9 3.3h.1l.1.1v.1.1c0 .1 0 .1-.1.1-.2.1-.3.2-.3.2z"/><path d="M607 174.7c-1.6-.5-3.3-3.6-3.3-3.7v-.1-.1-.1l.1-.1h.1.1.1l.1.1s1.7 3.1 3 3.5h.1l.1.1v.1.1s0 .1-.1.1-.2.1-.3.1zm-.5 2.6c-1.4 0-3.4-3.8-3.7-4.2v-.1-.1-.1l.1-.1h.2c.1 0 .1.1.1.1.8 1.6 2.5 4 3.3 4 .1 0 .2 0 .4-.1.1-.1.2-.1.3-.2.2-.3.2-.6.1-.9v-.2c0-.1.1-.1.1-.1h.2c.1 0 .1.1.1.1.1.2.1.4 0 .7 0 .2-.1.4-.2.6l-.4.4c-.2.2-.4.2-.6.2h0z"/><path d="M650.4 250.9l-.1 2.6c-.7 16.3-2.8 32.8-2.8 32.8l-22.3.8 4.9-40.6c.9-1.9 1.4-1.4 2.4-3.1 2.6-4.1 12.5-7.5 17.6-8.8l.3 5.3v.5c.1 3.3.1 6.9 0 10.5z" fill="#ffa436"/><path d="M621.9 211.9h0c-.1 0-.1 0-.2-.1l-.1-.1c-.1-1.1-.2-4.5.5-5 .1 0 .2-.1.3-.1s.2 0 .2.1c1.1.8-.3 4.3-.6 5 0 0 0 .1-.1.1.1.1.1.1 0 .1zm.6-4.8c-.3.1-.4 1.6-.4 3.4.5-1.4.8-3 .4-3.4z" fill="#534585"/><g class="W"><path d="M631.4 221.2c-2.1 0-4.1-.1-6.2-.4-.1 0-.1 0-.1-.1s-.1-.1 0-.2c0-.1 0-.1.1-.2s.1-.1.2 0c.1 0 14.3 2.3 20.7-4 0 0 .1-.1.2-.1s.1 0 .2.1v.1.1.1.1c-4 3.7-10.3 4.5-15.1 4.5zm-1.4 25.5h-.1c-.1 0-.1-.1-.1-.1v-.2c0-.1 3.3-5.7 11.8-8.9h.2c.1 0 .1.1.1.1v.1.1s0 .1-.1.1h-.1c-8.3 3.2-11.5 8.7-11.6 8.7 0 0 0 .1-.1.1h0zm19.4-12.6c-1.6.1-3.2-.5-4.4-1.6-2.3-2.2-2.2-5.7-2.2-5.9v-.1l.1-.1 5.6-2.3h.1.1s.1 0 .1.1v.1.2c0 .1-.1.1-.1.1l-5.5 2.2c0 .7.2 3.6 2.1 5.4.6.6 1.4 1 2.2 1.3s1.7.3 2.5.2c.1 0 .1 0 .2.1 0 0 .1.1.1.2s0 .1-.1.2c0 0-.1.1-.2.1l-.6-.2zm-23.4 2.1c-.3 0-.5 0-.8-.1-.5-.1-1-.2-1.4-.5s-.8-.7-1-1.1c-1.7-3 .6-8.8.7-9 0-.1.1-.1.1-.1h.2l8.5 2.7c.1 0 .1.1.1.1v.2c.1 0-1.5 7.8-6.4 7.8zm-2.1-10.3c-.4 1-2 5.9-.6 8.4a1.96 1.96 0 0 0 .9.9c.4.2.8.4 1.2.4 4.6.7 6.4-6 6.7-7.3l-8.2-2.4z"/></g><path d="M606.6 303.7s3.3-15.6.8-15.6-6.5 1.6-6.5 1.6-5.1-3.8-7.8-2.6c-2.7 1.3-4.6 4.7-4.6 4.7l-14.8 6.8s-2 2.4-1.8 3.8c.2 1.1 20.8 3.7 29.9 4.8 1.1.2 2.2-.1 3.1-.7a4.59 4.59 0 0 0 1.7-2.8h0z" class="j"/><path d="M587.1 296.6h0l-4.7-1.5h-.1l-.1-.1v-.1-.1-.1l.1-.1h.1.1l4.1 1.3-.9-2v-.1-.1l.1-.1h.1l5.3 1.4-2.9-3.1v-.1-.1-.1-.1h.1.1.1.1l3.4 3.7v.1.1l-.1.1h-.1l-5.6-1.5 1 2v.1.1c-.1.4-.1.4-.2.4z" class="d"/><path d="M629.8 289.9s-8.8 14.6-7.3 16.4 12.2 2 17.1 1.3c4.9-.8 6.8-1.4 7.1-2.6.4-1.2-1.9-16.2-1.9-16.2s-2.2-2.5-5.1-1.8c-3 .6-7.6 3-7.6 3s-1.1-2.1-2.3-.1z" class="j"/><path d="M630.1 291.3h-.1s-.1 0-.1-.1v-.2c0-.1.1-.1.1-.1l2-1.2h.2c.1 0 .1.1.1.1v.2c0 .1-.1.1-.1.1l-2 1.2h-.1z" class="d"/><path d="M634.7 182.9c.5 0 1-.4 1-1a.94.94 0 0 0-1-1c-.5 0-1 .4-1 1a.94.94 0 0 0 1 1z" class="W"/><path d="M615.9 213.5s-.1 0 0 0c-.1 0-.2-.1-.2-.1s-.1-.1 0-.2c0-.1 0-.1.1-.2.3-.2.5-.6.7-.9s.2-.7.3-1.1c0-.1 0-.2-.1-.3 0-.1-.1-.2-.2-.2-.4-.2-.9-.4-1.4-.3h-.1l-.1-.1v-.1s0-.1.1-.1c.7-.8 1.1-1.8 1.2-2.8 0-1.4-2.4-1.9-2.4-1.9s-.1 0-.1-.1-.1-.1-.1-.1v-.1-.1c.6-.8 1-1.7 1.3-2.7.2-1-1.4-1.8-2-2 0 0-.1 0-.1-.1v-.1-.1s0-.1.1-.1c.4-.3 1.4-1.2 1.2-1.8s-1.4-.6-2.3-.7h-.1-.1v-.1-.1c0-.1.1-.2.3-.2.5 0 2.5.1 2.8 1 .2.8-.6 1.6-1.1 2 .7.3 2.2 1.2 2 2.4a6.82 6.82 0 0 1-1.2 2.6c.7.2 2.5.9 2.5 2.3 0 1-.4 1.9-1 2.7a1.92 1.92 0 0 1 1.2.4 1.38 1.38 0 0 1 .3.4c.1.1.1.3.1.5 0 .5-.1.9-.3 1.3-.6.4-.9.7-1.3 1.1h0z" fill="#534585"/><g class="W"><path d="M622.8 264.2c-.6 0-3.5-.1-4-2.8-.5-2.4.8-4.5 1.2-5.2-.8-.7-4.2-4-2.7-7.6 1.3-3.4 4.9-2.8 6.1-2.5-.3-1.1-.7-4.2 1.5-6.1.2-.2.5-.4.9-.5.3-.1.6-.1 1 0 2.5.4 5 4.5 5.1 4.6v.2c0 .1-.1.1-.1.1h-.1-.1-.1l-.1-.1s-2.5-4.1-4.8-4.4h-.8c-.3.1-.5.2-.7.4-2.6 2.2-1.3 6-1.3 6v.1s0 .1-.1.1c0 0-.1 0-.1.1h-.1c-.2-.1-4.5-1.5-6 2.2s2.7 7.2 2.8 7.3c0 0 .1.1.1.2v.2s-1.8 2.4-1.3 5 3.6 2.4 3.7 2.4.1 0 .2.1c0 0 .1.1.1.2v.1.1l-.1.1h-.1l-.1-.3zm-11.7 13.4c-2.1 0-4.7-2.7-5.4-3.5-.6.6-2.4 2.7-4.2 2.8-.3 0-.7 0-1-.1s-.6-.3-.8-.5-.4-.5-.6-.8c-.1-.3-.2-.6-.2-.9.1-1.7 2-3.5 2.7-4.1-1-.5-3.9-2.3-3.3-5.2.1-.4.2-.8.4-1.1s.5-.6.8-.8c1.3-.8 3.3-.5 3.9-.4.3-.9 1.8-4.7 3.7-5.5.2-.1.5-.2.8-.2s.5.1.8.2c2.5 1.2 2 4.6 1.9 5.6 1 .3 5.2 1.6 4.8 4.2-.4 2.3-3.4 2.9-4.6 3.1.7.9 2.6 3.4 2.4 5.3 0 .3-.1.6-.2.8a3.04 3.04 0 0 1-.5.7c-.4.2-.9.4-1.4.4zm-5.4-4.1c.1 0 .1 0 .2.1 0 .1 4.2 4.9 6.3 3.1.2-.1.3-.3.4-.5s.2-.4.2-.7c.2-2.1-2.6-5.2-2.6-5.3 0 0 0-.1-.1-.1v-.1s0-.1.1-.1h.1s4.2-.3 4.6-2.7c.4-2.5-4.6-3.7-4.7-3.7s-.1-.1-.1-.1v-.1-.1s1-4-1.6-5.2c-.2-.1-.4-.1-.6-.1s-.4 0-.6.1c-2 .8-3.5 5.4-3.6 5.4 0 .1-.1.1-.1.1h-.2s-2.3-.6-3.7.2c-.3.2-.5.4-.7.7s-.3.6-.3.9c-.6 3.1 3.4 4.8 3.4 4.9 0 0 .1 0 .1.1v.1.1s0 .1-.1.1c0 0-2.7 2.1-2.8 4 0 .3 0 .5.1.8.1.2.2.4.4.6s.4.3.7.4c.2.1.5.1.8.1 1.9-.1 4.1-2.8 4.1-2.8.2-.1.2-.1.3-.2 0 .1 0 0 0 0h0z"/></g><path d="M642.9 241.9c2.1-.6 3.9 2.7 3.9 2.7l.1.1h.1.1l.1-.1s1.4-3.5 3.2-4.1h0v-.5c-.1 0-.1 0-.2.1-1.5.6-2.8 3-3.2 4-.6-.9-2.2-3.1-4.2-2.5-2.2.6-1.7 4.5-1.5 5.5-.8.2-3.7 1.1-3.7 3.7 0 .2 0 .5.1.7s.2.4.4.6c1.4 1.3 4.9 1 5.8 1 .1.6.6 2.3 1.8 3 .4.3.8.4 1.3.4.3 0 .5 0 .8-.1.6-.2 1.2-.5 1.6-1 .5-.5.8-1.1.9-1.7l.1-2.6h-.1l-.1.1v.1s.1 3.9-2.5 4.6c-.3.1-.6.1-.8.1s-.6-.1-.8-.3c-1.2-.8-1.6-2.9-1.6-2.9 0-.1 0-.1-.1-.1l-.1-.1c-.1 0-4.3.5-5.7-.8-.1-.1-.2-.3-.3-.4-.1-.2-.1-.3-.1-.5 0-2.5 3.5-3.2 3.6-3.2h.1l.1-.1v-.1-.1c-.3-.4-1.2-4.9.9-5.5z" fill="#ffd4a1"/><path d="M609.4 245.2c-1 0-2-.3-2.8-.8l-.1-.1v-.2l.1-.1h.1.1.1c.9.6 1.9.8 3 .7a4.59 4.59 0 0 0 2.7-1.3c2.2-2.2 0-6.8 0-6.9v-.1-.1s0-.1.1-.1h.1c.1 0 3.5-.4 3.3-7.1v-.1-.1l.1-.1h.1.1.1l.1.1v.1c.2 6-2.5 7.3-3.4 7.5.5 1.1 2 5-.2 7.1-.4.5-1 .8-1.6 1.1-.7.4-1.3.5-2 .5z" class="W"/><g fill="#ffd4a1"><path d="M629.8 275.1c-1.1-.1-2.1-.5-3.1-1.1l-.1-.1c-.1-.1 0-.1 0-.1v-.1-.1l.1-.1h.1.1.1s2.5 1.7 3.8.7c.8-.6.6-2.9.5-3.7v-.1-.1l.1-.1h.1c.2 0 5.5.1 5.6-3.9.2-4-5.2-5.3-5.3-5.3 0 0-.1 0-.1-.1s-.1-.1-.1-.1v-.1-.1c.4-.5 1.3-1.9 1.1-2.7 0-.1-.1-.2-.1-.2l-.2-.2c-1.2-.6-3.4 1.4-4.1 2.2 0 0-.1.1-.2.1s-.1 0-.2-.1c0 0-.1-.1-.1-.2s0-.1.1-.2 2.9-3.2 4.7-2.3c.1.1.3.2.4.3a.76.76 0 0 1 .2.4c.2.9-.6 2.2-1 2.8 1.2.4 5.4 1.9 5.3 5.6-.2 3.9-4.7 4.3-5.8 4.4.1.8.3 3.1-.8 3.9-.1.6-.6.7-1.1.7zm14.2 11.2s-.1 0 0 0c-.1 0-.1 0-.2-.1-.9-1-1.5-2.3-1.7-3.7-.2-2 2.5-3.9 3.3-4.4-.8-.9-3.8-4.7-2.5-7.5 1.4-3.1 6.1-2.8 6.3-2.8.1 0 .1 0 .2.1 0 0 .1.1.1.2v.1s0 .1-.1.1h-.1-.1c-.1 0-4.6-.3-5.9 2.5s2.6 7.1 2.6 7.2c0 0 0 .1.1.1v.1.1s0 .1-.1.1c0 0-3.6 2.1-3.3 4.1.2 1.3.7 2.5 1.5 3.5 0 0 .1.1.1.2s0 .1-.1.2c0-.1 0-.1-.1-.1z"/></g><path d="M580.2 179.6h9.2v5.5h-9.2z" class="W"/></g><path d="M555.2 132.7h20.3v7.6h-20.3v-7.6z" class="W"/><path d="M555.2 132.7h.6v7.6h-.6v-7.6z" class="Z"/></g><path d="M555.2 148.7h20.3v7.6h-20.3v-7.6zm0 8.5h20.3v7.6h-20.3v-7.6zm0-32.1h20.3v7.6h-20.3v-7.6zm0 15.2h20.3v7.6h-20.3v-7.6z" class="V" fill="#eee"/><g class="V"><defs><path id="H" d="M391 165h136v146H391z"/></defs><clipPath id="I"><use xlink:href="#H"/></clipPath><g clip-path="url(#I)"><path d="M449.7 290.2l-.5 5.1-9.5 3-5.4-1.6 2.4-10.7 13 4.2z" class="Y"/><path d="M462.2 214.6s5.9 23.2 4.1 40.4-10.5 38.2-10.5 38.2l-23.1-4.2 7.7-25.4 5.6-47.8 16.2-1.2z" fill="#aa97f7"/><path d="M432.8 309.9c.4.7 5.7.2 6.2.3s1.8-2.8 2.7-2.4c.8.5 1.9 1.9 3.1 2.5 1.3.7 20.6.9 24.4.5.1 0 .2 0 .2-.1.1 0 .1-.1.2-.2 0-.1.1-.1.1-.2v-.2c-.2-1.2-.5-2.4-.9-3.5-.5-1.6-1.4-3-2.6-4.1-3-2.3-9.3-3.3-11.5-4.8-2.3-1.5-4.8-5.1-6.2-4.5-1.4.7-4 3.7-7.7 3.2s-5.4-1.4-6.4-.6c-.7.6-1.3 6.5-1.5 10.4-.3 1.2-.3 2.5-.1 3.7z" class="j"/><path d="M437.9 289.8h0-.1l-.1-.1v-.1-.1l4.4-16.8c0-.1.1-.1.1-.1h.2.1l.1.1v.1.1l-4.4 16.8c0 .1 0 .1-.1.1h-.2z" fill="#d9d7ff"/><path d="M432.8 309.9c.4.7 5.7.2 6.2.3s1.8-2.8 2.7-2.4c.8.5 1.9 1.9 3.1 2.5 1.3.7 20.6.9 24.4.5.1 0 .2 0 .2-.1.1 0 .1-.1.2-.2 0-.1.1-.1.1-.2v-.2c-.2-1.2-.5-2.4-.9-3.5l-36-.4c-.2 1.2-.2 2.5 0 3.7z" fill="#ffa436"/><path d="M414.5 246.4l8 7.9 8.1-12.5-4.5-4.6-11.6 9.2z" class="Y"/><path d="M418.8 225.5c-.8-.3-4.3 3.6-4.8 3.8s.6 3.3-.4 3.5c-.9.2-2.7-.2-4 .2-1.4.3-15.9 12.9-18.5 15.7-.1.1-.1.1-.1.2v.2c0 .1 0 .1.1.2 0 .1.1.1.1.2 1 .8 2 1.4 3 2 1.4.9 3.1 1.3 4.8 1.3 3.8-.3 9.1-3.6 11.8-4s7.1.7 7.6-.7c.6-1.4.5-5.4 3.6-7.5s5-2.5 5.2-3.8c.1-.9-3.4-5.6-6-8.7-.7-1-1.5-1.9-2.4-2.6z" class="j"/><path d="M418.8 225.5c-.8-.3-4.3 3.6-4.8 3.8s.6 3.3-.4 3.5c-.9.2-2.7-.2-4 .2-1.4.3-15.9 12.9-18.5 15.7-.1.1-.1.1-.1.2v.2c0 .1 0 .1.1.2 0 .1.1.1.1.2 1 .8 2 1.4 3 2l27-23.4c-.7-1-1.5-1.9-2.4-2.6z" class="d"/><g fill="#ada4f7"><path d="M433.8 216.5s-1.7 8.4-2.5 15.5l-2.1 16.7s-6 22 8.4 23.9c17.8 2.4 18.2-19.9 18.2-19.9l-.3-37.8-21.7 1.6z"/><path d="M414.3 250l14.7-12.5 4.4 6 1.2 28.4c-.1.1-6.5-.8-20.3-21.9z"/></g><g class="W"><path d="M439.5 273.1c-.7 0-1.4 0-2.1-.1-.1 0-.1-.1-.2-.1v-.2-.1l.1-.1h.1.1c2.6.4 5.3 0 7.7-1s4.6-2.6 6.2-4.7c7.7-10 2.4-39.1 2.4-39.4v-.1-.1c0-.1.1-.1.2-.1l7.8-.6h.1.1l.1.1v.1c0 .1 0 .1-.1.2 0 0-.1.1-.2.1l-7.6.6c.6 3.1 5 29.7-2.5 39.5-1.4 1.9-3.3 3.4-5.4 4.4a13.15 13.15 0 0 1-6.8 1.6zm-4.5-25.4h-.3c-1.9-.6-4.3-7.2-4.5-8v-.2c0-.1.1-.1.1-.1l.1-.1c.1 0 .1 0 .2.1.2.2 5.5 5.2 5.4 7.3 0 .2 0 .3-.1.4s-.2.3-.3.3c-.2.2-.4.3-.6.3zm-4-7.3c.9 2.4 2.6 6.3 3.9 6.7h.2c.1 0 .1 0 .2-.1l.2-.2c0-.1.1-.2.1-.2 0-1.3-2.8-4.4-4.6-6.2zm4.1-14.3h-.1l-.1-.1v-.2c0-.1.1-.1.1-.1 3.1-1.5 5.1-5.3 5.1-5.3s0-.1.1-.1h.1.1.1c.1 0 .1.1.1.1v.2c-.1.2-2.1 4-5.3 5.5h-.2z"/></g><g class="n"><path d="M438.3 185.1c-3.4.9-6.5 2.6-9 5s-4.4 5.4-5.4 8.6c-3.6 11.4 10.9 23.4 10.9 23.4l27.4-7.5s-3.3-29.2-6.6-32.1-17.3 2.6-17.3 2.6z"/><path d="M446.5 178.8s1.5-10.9 15.7-13.6C476.5 162.5 485 180 485 180l-42.1 7.6 3.6-8.8z"/></g><path d="M474.2 177.1c-.1 0-.1 0-.2-.1l-2.7-2.3-.1-.1v-.1-.1s0-.1.1-.1l.1-.1h.1.1s.1 0 .1.1l2.7 2.3.1.1v.1.1s0 .1-.1.1c-.1.1-.1.1-.2.1z" class="e"/><path d="M445.4 174.1s4.6-3.1 2.8-6-6.2-.4-6.2-.4c-.5-.5-1.2-.8-1.9-.9a3.19 3.19 0 0 0-2.1.4c-2.4 1.2-2.9 4.3-2.9 4.3s-2.4-.2-2.7 2.6 2.6 5.6 2.6 5.6l10.4-5.6z"/><path d="M437.3 181.3l-.4 5.4s.9 1.6 4.1 2.1c2.4.4 3.2-1.1 3.2-1.1l-.1-1.7-.1-2.7-5.7-1.7-1-.3z" class="Y"/><path d="M438.3 181.6c0 .2 0 .4.1.5 1 2.8 4.3 3.6 5.7 3.9l-.1-2.7-5.7-1.7z"/><path d="M446.2 171.1s2.3 7 .9 10.7-4.9 2.8-6.9 1.8c-1.1-.5-2.1-1.3-2.9-2.3-.6.1-1.2 0-1.8-.2a3.04 3.04 0 0 1-1.3-1.2c-1.1-1.9-.1-3.9 1-4.3 1.2-.4 2.4.5 2.4.5l-.9-2.1c0 .1 5.3-9.4 9.5-2.9z" class="Y"/><path d="M446.6 172.6c-.2-.3-.4-.6-.8-.9-.3-.2-.7-.4-1.1-.4s-.8 0-1.2.2c-.4.1-.7.3-1 .6 0 0 .4 2.3-1.5 3.4-1 .6-2.2.8-3.4.6l-1.3-.6-.8-2 4.2-3.8 5.3-2.2 2.4 2.5-.8 2.6z"/><path d="M470.3 178.1h0-.1l-.1-.1v-.1-.1a9.79 9.79 0 0 1 1.4-3.7c.7-1.1 1.7-2.1 2.8-2.9h.1.1.1l.1.1v.2c0 .1-.1.1-.1.1a9.97 9.97 0 0 0-4 6.2c0 .1 0 .1-.1.1-.1.2-.1.2-.2.2z" class="e"/><path d="M511.4 176.9h-48.7c-2.5 0-4.6 2-4.6 4.4v80.2c0 2.4 2.1 4.4 4.6 4.4h48.7c2.5 0 4.6-2 4.6-4.4v-80.2c0-2.4-2.1-4.4-4.6-4.4z" class="a"/><path d="M506.7 176.9h-47.8c-2.5 0-4.5 2-4.5 4.4V262c0 2.5 2 4.4 4.5 4.4h47.8c2.5 0 4.5-2 4.5-4.4v-80.6a4.48 4.48 0 0 0-4.5-4.5z" class="W"/><path d="M477.4 172.2s-1.7-2.8-3.2-.5-.2 8.9 1 9.2 2.2-2.2 2.2-2.2.3 2.1 1.7 2.2c1.4 0 2.1-2.2 2.1-2.2s.7 2.5 1.9 2.2c1.4-.4 2.1-8.7-.5-9.6-1.2-.4-1.9.9-1.9.9s-.5-1.6-1.9-1.4c-.4 0-.7.2-.9.4-.4.3-.5.7-.5 1z" class="Y"/><path d="M477.4 178.7c-.1 0-.1 0-.2-.1 0 0-.1-.1-.1-.2v-6.3-.1s0-.1.1-.1.1 0 .1-.1h.1c.1 0 .1 0 .2.1 0 0 .1.1.1.2v6.3c0 .1 0 .1-.1.1-.1.2-.2.2-.2.2zm3.7.3c-.1 0-.1 0-.2-.1 0 0-.1-.1-.1-.2l-.5-6.6c0-.1 0-.1.1-.2 0 0 .1-.1.2-.1h.1.1l.1.1v.1l.5 6.6c0 .1 0 .1-.1.2-.1.2-.1.2-.2.2h0z"/><path d="M460.7 176.8h-.1l-.1-.1c-.1-.3-.9-2.8-.4-3.7.1-.1.1-.2.2-.3s.2-.1.3-.1h.3c.1 0 .2.1.3.2.6.7-.1 3.4-.3 3.9 0 0 0 .1-.1.1 0 0 0 0-.1 0zm.1-3.8h0c-.1 0-.1 0-.2.1l-.1.1c-.3.4-.1 1.6.2 2.5.3-1.1.5-2.4.1-2.7h0z" class="e"/><g class="d"><path d="M454.5 299.7c-.1 0-.1 0-.2-.1l-.1-.1v-.2s.1-.1.2-.1c1.5-.2 5.5-1 6-2.4v-.2c-.4-.4-3.8.6-6.7 1.8h-.2c-.1 0-.1-.1-.1-.1v-.1-.1-.1l.1-.1c1.5-1.2 3.6-3.1 3.5-3.7 0 0 0-.1-.2-.1-1-.4-3 2.4-4 4.1 0 .1-.1.1-.1.1h-.2c-.1 0-.1-.1-.1-.1v-.2c.3-.5 2.8-4.9 4.6-4.4.1 0 .2.1.3.2s.1.2.2.3c.1.8-1.4 2.2-2.5 3.2 2.1-.8 5.2-1.8 5.8-1.2.1.1.1.2.2.3 0 .1 0 .2-.1.3-.7 2.3-6.1 3-6.4 3h0zm-46.9-45.1c-.1 0-.2 0-.3-.1s-.2-.2-.2-.3c-.8-1.9 2.4-6.2 2.6-6.4 0 0 .1-.1.2-.1h.2s.1.1.1.2v.2c-.9 1.2-3.1 4.5-2.5 5.9 0 .1.1.1.1.1.6 0 2.2-3.1 3.4-6 0-.1.1-.1.1-.1h.2c.1 0 .1 0 .1.1v.2c-.2 1.9-.3 4.7.2 5.1 0 0 .1.1.2 0 1-.5.4-3.8-.2-5.7v-.1-.1s0-.1.1-.1h.1.1.1s.1 0 .1.1v.1c.2.6 1.6 5.4-.1 6.3-.1.1-.2.1-.3.1s-.2 0-.3-.1c-.7-.4-.7-2.5-.5-4-1.2 1.9-2.6 4.8-3.5 4.7h0z"/></g><path d="M447.3 199.4c-.1 0-.1 0-.1-.1l-.1-.1v-.2c0-.1.1-.1.1-.1l3-.8h.1.1s.1 0 .1.1v.1.2c0 .1-.1.1-.1.1l-3.1.8h0z" class="e"/><g class="W"><path d="M416.4 253.5c-.1 0-.1 0-.2-.1v-.1-.1-.1s0-.1.1-.1l14.7-11.8s.1-.1.2-.1.1 0 .2.1c0 .1.1.1.1.2s0 .1-.1.2l-14.7 11.8c-.1.1-.2.1-.3.1z"/><path d="M435.4 250.3c-3.6 0-6.7-6.4-6.8-6.7v-.1-.1-.1l.1-.1h.2c.1 0 .1.1.1.1 0 .1 3.7 7.6 7.3 6.2 3-1.2 1.8-18.9 1.1-25.7 0-.1 0-.1.1-.2 0 0 .1-.1.2-.1s.1 0 .2.1c.1 0 .1.1.1.2.3 2.5 2.5 24.6-1.4 26.2-.4.2-.8.3-1.2.3z"/></g><circle cx="471.3" cy="187.4" r="4" class="Z"/><path d="M471 203.5h.5v43.4h-.5z" class="k"/><g class="Z"><path d="M470.9 189.2h.9v14.4h-.9z"/><circle cx="471.3" cy="201" r="4"/></g><g class="k"><circle cx="471.3" cy="223.8" r="4"/><circle cx="471.3" cy="237.3" r="4"/><circle cx="471.3" cy="250.9" r="4"/></g><path d="M449.4 199.8s6.9-3.6 9-3.9 5.6 1.9 5.6 1.9l-1.8 1s2.8 6 2.3 7c-.5.9-1.9 0-1.9 0s-3.2 3.3-4.2 3.4c-.9.1-5.9-1.8-5.9-1.8l-3.1-7.6z" class="Y"/><path d="M450.3 198.3l-14.9 5.2 1.5-18.1s-11.4 3.4-14.5 15c-3 11.6 1.4 20.8 10.7 21.6 9.4.8 22.1-12.1 22.1-12.1l-4.9-11.6z" class="n"/><g fill="#737373"><path d="M462.2 198.9l5-3 1.3 2.5-5.2 3-1.1-2.5z"/><path d="M470.1 199.2c-.6 0-1.2-.1-1.7-.3-.5-.3-.9-.7-1.2-1.1-.9-1.7.3-3.9.4-4.1l1.7.9c-.2.4-.8 1.6-.4 2.3.3.5 1.4.5 1.9.4l.4 1.8c-.4.1-.8.1-1.1.1z"/></g><path d="M462.2 199.1h-.1s-.1 0-.1-.1l-1.3-1.8v-.1-.1-.1l.1-.1c.1 0 .1-.1.2 0s.1 0 .2.1l1.3 1.8v.1.1.1l-.1.1h-.2zm.4 7h-.1s-.1 0-.1-.1l-.7-1c0-.1-.1-.1 0-.2 0-.1 0-.1.1-.2h.1.1.1s.1 0 .1.1l.7 1v.2c0 .1 0 .1-.1.2h-.2z"/><g class="e"><path d="M441.5 189.1c-2.5 0-4.8-2.1-4.9-2.2l-.1-.1v-.1-.1s0-.1.1-.1c0 0 .1-.1.2-.1s.1 0 .2.1c.7.7 1.6 1.2 2.5 1.6 1.8.8 3.3.6 4.5-.6l.1-.1h.1.1s.1 0 .1.1l.1.1v.1.1s0 .1-.1.1c-.3.4-.8.7-1.2.9-.6.2-1.1.3-1.7.3h0zm11.5 23.5h-.1l-.1-.1-5.6-12.9c-1.4.3-9.5 2.2-15.3 4.6h-.1-.1s-.1 0-.1-.1l-.1-.1v-.1-.1s0-.1.1-.1l.1-.1c6.4-2.7 15.5-4.6 15.6-4.6h.2l.1.1 5.7 13.1v.1.1s0 .1-.1.1c0 0-.1 0-.2.1h0z"/><path d="M435 202.1c-1.9 0-4-.1-4.2-.7-.1-.1-.1-.4.3-.6 1.6-1.3 6.4.7 6.6.8.1 0 .1.1.1.1v.2c0 .1 0 .1-.1.1l-.1.1c-.7-.1-1.6 0-2.6 0zm-2.3-1.4c-.5 0-.9.1-1.3.3l-.1.1c.2.3 2.6.4 5.1.4-1.2-.4-2.5-.7-3.7-.8h0zm2.4-11.6c-.1 0-.1 0-.2-.1l-.1-.1v-.1-.1s0-.1.1-.1l.9-1.1.1-.1h.1.1s.1 0 .1.1l.1.1v.1.1s0 .1-.1.1l-.9 1.1c-.1 0-.1.1-.2.1zm2.9 1.5h0c-.1 0-.2 0-.2-.1s-.1-.1 0-.2l.3-1.5c0-.1.1-.1.1-.2.1 0 .1-.1.2 0 .1 0 .1 0 .2.1 0 .1.1.1 0 .2l-.3 1.5c0 .1 0 .1-.1.1-.1.1-.2.1-.2.1zm3.4.7c-.1 0-.1 0-.2-.1l-.1-.1-.2-1.4v-.2s.1-.1.2-.1h.2c.1 0 .1.1.1.2l.2 1.4v.2c-.1.1-.1.1-.2.1h0zm2.7-.9h-.1s-.1 0-.1-.1l-.6-.9v-.2c0-.1 0-.1.1-.2.1 0 .1-.1.2 0 .1 0 .1 0 .2.1l.6.9c0 .1.1.1 0 .2 0 .1 0 .1-.1.2h-.2zm2.3-2.6h0l-1.4-.4h-.1l-.1-.1v-.1-.1-.1l.1-.1h.1.1l1.3.4h.1l.1.1v.1.1s0 .1-.1.1c0 .1-.1.1-.1.1zm2.1 14.3h-.1l-.1-.1v-.2c0-.1.1-.1.1-.1l2.7-1.5h.2c.1 0 .1.1.1.1v.2c0 .1-.1.1-.1.1l-2.7 1.5h-.1zm1.5 3.5h-.1l-.1-.1v-.1-.1-.1l.1-.1 2.5-1.5h.2c.1 0 .1.1.1.1v.1.1.1l-.1.1-2.5 1.5h-.1zm1.4 3.4h-.1s-.1 0-.1-.1l-.1-.1v-.1-.1s0-.1.1-.1l2.4-2.1.1-.1h.1.1s.1 0 .1.1c0 0 .1.1.1.2s0 .1-.1.2l-2.4 2.1s-.1.1-.2.1zm-8.1 10.5h-.1l-.1-.1v-.1-.1s0-.1.1-.1c0 0 .1 0 .1-.1.1 0 6-2.6 9.6-6.9l2.3-2.3.1-.1h.1.1s.1 0 .1.1l.1.1v.1.1s0 .1-.1.1l-2.3 2.3c-3.8 4.3-9.9 7-10 7z"/></g><path d="M476.5 208.2h24.6a.94.94 0 0 1 1 1v3.5a.94.94 0 0 1-1 1h-24.6a.94.94 0 0 1-1-1v-3.5c0-.6.5-1 1-1z" class="c"/><g class="i"><path d="M477.4 186.1h11v1.8h-11zm0 13.8h11v1.8h-11zm0 22.9h11v1.8h-11zm0 13.8h11v1.8h-11zm0 13.8h11v1.8h-11z"/></g></g></g><path d="M714 236h-25v10h25v-10zm-13 14h-25v9h25v-9zm-14-14h-24v10h24v-10z" class="V" fill="#df9f56"/><g class="V a"><path d="M597.8 214h-54.7c-2.9 0-5.2.8-5.2 1.7v31.5c0 1 2.3 1.7 5.2 1.7h54.7c2.9 0 5.2-.8 5.2-1.7v-31.5c0-.9-2.3-1.7-5.2-1.7z"/></g><path d="M542,207h51   c2.8,0,5,2.2,5,5v27c0,2.8-2.2,5-5,5h-51c-2.8,0-5-2.2-5-5v-27C537,209.2,539.2,207,542,207z" class="V W"/><circle cx="553.4" cy="215.8" r="1.9" class="V Z"/><path d="M562.4 215.6h19.4v.4h-19.4z" class="V k"/><g class="Z"><path d="M554.3 215.6h6.8v.4h-6.8z" class="V"/><circle cx="560.9" cy="215.8" r="1.9" class="V"/></g><circle cx="560.9" cy="215.8" r="1.5" class="V W"/><g class="k"><circle cx="568.3" cy="215.8" r="1.9" class="V"/><circle cx="575.8" cy="215.8" r="1.9" class="V"/><circle cx="582.8" cy="215.8" r="1.9" class="V"/></g><path d="M554.3 221.3h25.9v3.6h-25.9zm0 6.5h25.9v3.6h-25.9zm0 6.6h25.9v3.6h-25.9z" class="V c"/></svg>