<svg width="30" height="30" viewBox="0 0 36 36" fill="none" xmlns="http://www.w3.org/2000/svg">
<path d="M27.4712 26.0017L26.4351 27.0379C26.1021 27.2966 25.7777 27.5674 25.4348 27.8121C23.2797 29.3503 20.8761 30.1653 18.2287 30.1668C14.2575 30.1691 10.9714 28.6313 8.43246 25.5844C6.72813 23.539 5.80503 21.1482 5.65124 18.4861C5.44699 14.9507 6.53553 11.8476 8.91497 9.22463C10.5741 7.39568 12.6205 6.16222 15.0236 5.57953C18.7178 4.68376 22.1533 5.30302 25.2971 7.45499C25.6906 7.72433 26.0584 8.03111 26.4381 8.32054L27.474 9.35639C27.5841 9.49471 27.6939 9.63327 27.8043 9.77133C29.495 11.885 30.4454 14.29 30.586 16.9948C30.7353 19.8668 29.9909 22.4968 28.3387 24.8593C28.0649 25.2508 27.7612 25.6215 27.4712 26.0017ZM25.5788 25.1482C29.6998 21.0309 29.7041 14.3483 25.5884 10.2176C21.483 6.09724 14.797 6.09128 10.6577 10.2043C6.52719 14.3086 6.52288 21.0347 10.6481 25.1523C14.7732 29.2697 21.4556 29.2678 25.5788 25.1482L25.5788 25.1482Z" fill="white"/>
<path d="M16.6768 17.6189C16.4444 17.3864 16.2381 17.1802 16.0319 16.9739C15.3417 16.2835 14.6469 15.5976 13.9633 14.9007C13.5994 14.5297 13.5657 14.037 13.8498 13.6317C13.9745 13.4534 14.1572 13.3239 14.3667 13.2653C14.5762 13.2067 14.7996 13.2227 14.9986 13.3105C15.1517 13.3848 15.2909 13.4849 15.41 13.6065C16.2259 14.4127 17.0348 15.2261 17.8459 16.0372L18.0522 16.2435L18.2699 16.0258C19.0756 15.2202 19.8826 14.416 20.686 13.6082C20.9603 13.3324 21.2734 13.1656 21.6705 13.2502C21.8404 13.2798 21.9985 13.3567 22.1266 13.4722C22.2546 13.5877 22.3474 13.737 22.3944 13.9029C22.5116 14.278 22.4224 14.6124 22.1468 14.8895C21.3089 15.732 20.4675 16.5708 19.6275 17.4111C19.5655 17.4731 19.5035 17.5351 19.4236 17.615C19.5014 17.6927 19.5629 17.7542 19.6244 17.8157C20.4527 18.6441 21.2844 19.4691 22.1082 20.3021C22.6316 20.8314 22.5183 21.6156 21.8855 21.9155C21.4985 22.0989 21.0742 22.0128 20.7277 21.6682C19.9029 20.8477 19.0817 20.0237 18.2591 19.2011L18.0483 18.9903C17.9764 19.0622 17.9155 19.1232 17.8545 19.1841C17.0085 20.0298 16.1643 20.8774 15.3153 21.7202C15.1932 21.8433 15.0402 21.9313 14.8725 21.975C14.7047 22.0186 14.5283 22.0163 14.3617 21.9684C14.1952 21.9204 14.0446 21.8285 13.9259 21.7022C13.8071 21.576 13.7245 21.4202 13.6868 21.251C13.5966 20.855 13.7555 20.5382 14.0317 20.263C14.8389 19.459 15.6447 18.6535 16.4491 17.8467L16.6768 17.6189Z" fill="white"/>
</svg>
