<svg xmlns="http://www.w3.org/2000/svg" xmlns:xlink="http://www.w3.org/1999/xlink" viewBox="0 0 700 320" xmlns:v="https://vecta.io/nano"><style><![CDATA[.a{clip-path:url(#J)}.b{fill:#fff}.c{opacity:.5}.d{fill:#2d334d}.e{fill-opacity:.15}.f{fill-opacity:.2}.g{opacity:.15}.h{fill:#a0b8d3}.i{fill:#6672d9}.j{fill:#ebb2a1}.k{fill:#879aec}.l{fill-rule:evenodd}]]></style><defs><path id="A" d="M0 0h700v320H0z"/><path id="B" d="M243.9 82.9c1.1 0 2.2.4 3 1.2s1.2 1.9 1.2 3-.4 2.2-1.2 3-1.9 1.2-3 1.2c-.6 0-1.1-.1-1.6-.3s-1-.5-1.4-.9-.7-.9-.9-1.4a4.53 4.53 0 0 1-.3-1.6c0-.6.1-1.1.3-1.6s.5-1 .9-1.4.9-.7 1.4-.9 1-.3 1.6-.3z"/><path id="C" d="M257.7 124.3h201.9c1.1 0 2 .9 2 2v17.4c0 1.1-.9 2-2 2H257.7c-1.1 0-2-.9-2-2v-17.4c0-1.1.9-2 2-2z"/><path id="D" d="M449.3 131.5h4.2c1.1 0 2 .9 2 2v4.2c0 1.1-.9 2-2 2h-4.2c-1.1 0-2-.9-2-2v-4.2c0-1.1.9-2 2-2z"/><path id="E" d="M453.4 134.4c0 .1-.1.2-.1.3l-.1.1-1-1c.1-.1.2-.3.4-.3.1 0 .2 0 .3.1l.4.4c.1.1.1.1.1.2v.2z"/><path id="F" d="M452 134l1 1-2.3 2.3-1-1 2.3-2.3z"/><path id="G" d="M449.4 198.7c-.1 0-.1-.1-.1-.2.1-.3.1-.6.2-.9l.9.9h-.2c-.3.1-.5.2-.8.2h0 0z"/><path id="H" d="M431.5 41.8h1.5c.3 0 .6.2.6.5s-.2.5-.6.5h-2.9c-.3 0-.6-.2-.6-.5s.2-.5.6-.5h1.4z"/><path id="I" d="M433.3 136.4H426a1.11 1.11 0 0 1-1.1-1.1h0a1.11 1.11 0 0 1 1.1-1.1h7.3a1.11 1.11 0 0 1 1.1 1.1h0a1.11 1.11 0 0 1-1.1 1.1z"/></defs><clipPath id="J"><use xlink:href="#A"/></clipPath><path d="M-48-20.4h824.5v346.5H-48z" fill="#337af8" class="a"/><defs><filter  filterUnits="userSpaceOnUse" x="-55.1" y="-62.2" width="819.4" height="462.7"><feColorMatrix values="1 0 0 0 0  0 1 0 0 0  0 0 1 0 0  0 0 0 1 0"/></filter></defs><g class="a g b"><path d="M542.9 267.2h-19.4c-.6 0-1.3.1-1.8.4-.6.2-1.1.6-1.6 1-.4.4-.8 1-1 1.6s-.4 1.2-.4 1.8v19.4c0 .6.1 1.3.4 1.8.2.6.6 1.1 1 1.6.4.4 1 .8 1.6 1s1.2.4 1.8.4h19.4a4.76 4.76 0 0 0 4.8-4.8V272a4.76 4.76 0 0 0-4.8-4.8zm2.5 24.3c0 .3-.1.6-.2.9s-.3.6-.5.8-.5.4-.8.5-.6.2-.9.2h-19.4c-.3 0-.6-.1-.9-.2s-.6-.3-.8-.5-.4-.5-.5-.8-.2-.6-.2-.9V272c0-.7.3-1.3.7-1.8.5-.5 1.1-.7 1.8-.7h19.4c.7 0 1.3.3 1.8.7.5.5.7 1.1.7 1.8v19.5z"/></g><g class="a g b"><path d="M562.7 245.6h-24.2a6.02 6.02 0 0 0-6 6v24.2a6.02 6.02 0 0 0 6 6h24.2a6.02 6.02 0 0 0 6-6v-24.2a6.02 6.02 0 0 0-6-6z"/></g><path d="M-48-9.3h795.9v335.4H-48V-9.3z" fill="#6653fe"/><g class="a g b"><path d="M640.4 102.9h-20.5c-2.8 0-5.1 2.3-5.1 5.1v20.5c0 2.8 2.3 5.1 5.1 5.1h20.5c2.8 0 5.1-2.3 5.1-5.1V108c0-2.8-2.3-5.1-5.1-5.1z"/></g><g class="a g b"><path d="M659.8 118.5h-19c-2.6 0-4.7 2.1-4.7 4.7v19c0 2.6 2.1 4.7 4.7 4.7h19c2.6 0 4.7-2.1 4.7-4.7v-19c0-2.6-2.1-4.7-4.7-4.7z"/></g><g class="a c b e"><path d="M125.2 151.8h-21.7c-3 0-5.4 2.4-5.4 5.4v21.7c0 3 2.4 5.4 5.4 5.4h21.7c3 0 5.4-2.4 5.4-5.4v-21.7c0-2.9-2.4-5.4-5.4-5.4z"/></g><g class="a c b e"><path d="M139.5 169h-17.8c-2.4 0-4.4 2-4.4 4.4v17.8c0 2.4 2 4.4 4.4 4.4h17.8c2.4 0 4.4-2 4.4-4.4v-17.8c0-2.5-2-4.4-4.4-4.4z"/></g><g class="a c b f"><path d="M109.2 52H89.7c-.6 0-1.3.1-1.8.4-.6.2-1.1.6-1.6 1-.4.4-.8 1-1 1.6s-.4 1.2-.4 1.8v19.4c0 .6.1 1.3.4 1.8.2.6.6 1.1 1 1.6.4.4 1 .8 1.6 1s1.2.4 1.8.4h19.4a4.76 4.76 0 0 0 4.8-4.8V56.8a4.76 4.76 0 0 0-1.4-3.4c-.8-.9-2-1.4-3.3-1.4zm2.5 24.2c0 .7-.3 1.3-.7 1.8-.5.5-1.1.7-1.8.7H89.7c-.7 0-1.3-.3-1.8-.7-.5-.5-.7-1.1-.7-1.8V56.8c0-.7.3-1.3.7-1.8.5-.5 1.1-.7 1.8-.7h19.4c.7 0 1.3.3 1.8.7.5.5.7 1.1.7 1.8v19.4z"/></g><g class="a c b f"><path d="M714.6 254.8h-12.9c-.4 0-.8.1-1.2.2-.4.2-.7.4-1 .7s-.5.7-.7 1c-.2.4-.2.8-.2 1.2v12.9c0 .4.1.8.2 1.2.2.4.4.7.7 1s.7.5 1 .7c.4.2.8.2 1.2.2h12.9c.9 0 1.7-.3 2.3-.9s.9-1.4.9-2.3V258c0-.9-.3-1.7-.9-2.3s-1.5-.9-2.3-.9zm1.6 16.1c0 .4-.2.9-.5 1.2s-.7.5-1.2.5h-12.9c-.4 0-.9-.2-1.2-.5s-.5-.7-.5-1.2V258c0-.4.2-.9.5-1.2s.7-.5 1.2-.5h12.9c.4 0 .9.2 1.2.5s.5.7.5 1.2v12.9z"/></g><g class="a c b e"><path d="M570.9 29.6h-16.2c-2.2 0-4 1.8-4 4v16.2c0 2.2 1.8 4 4 4h16.2c2.2 0 4-1.8 4-4V33.6c0-2.2-1.8-4-4-4z"/></g><g class="a c b e"><path d="M455.2 263.7h-26.9a6.7 6.7 0 0 0-6.7 6.7v26.9a6.7 6.7 0 0 0 6.7 6.7h26.9a6.7 6.7 0 0 0 6.7-6.7v-26.9a6.7 6.7 0 0 0-6.7-6.7z"/></g><g class="a c b e"><path d="M431.1 241.5h-25.4c-3.5 0-6.3 2.8-6.3 6.3v25.4c0 3.5 2.8 6.3 6.3 6.3h25.4c3.5 0 6.3-2.8 6.3-6.3v-25.4c0-3.5-2.8-6.3-6.3-6.3z"/></g><g class="a c d f"><path d="M506.3 187.5h98a4.95 4.95 0 0 1 5 5V211a4.95 4.95 0 0 1-5 5h-98a4.95 4.95 0 0 1-5-5v-18.5c0-2.7 2.2-5 5-5z"/></g><path d="M503.2 182.4h89.9a4.95 4.95 0 0 1 5 5v14.5a4.95 4.95 0 0 1-5 5h-89.9a4.95 4.95 0 0 1-5-5v-14.5c0-2.7 2.3-5 5-5z" class="a b"/><g class="a"><defs><path id="L" d="M144 26.5h411.7V320H144z"/></defs><clipPath id="M"><use xlink:href="#L"/></clipPath><g clip-path="url(#M)"><g class="b"><path d="M179.8 235.7v-.4s-.1-.7-.7-.7h-14.9c-.4 0-.7.1-1 .4s-.4.6-.4 1v13c0 .3.1.5.2.7s.3.4.6.5l-1.2.3v-64.9h.2v-.2h139.1v.2h.2v9.8h-.4v-8.2c0-.4-.1-.7-.4-1s-.6-.4-1-.4h-14.2c-.4 0-.7.1-1 .4s-.4.6-.4 1v8.2h-.4v-8.2c0-.4-.1-.7-.4-1s-.6-.4-1-.4h-14.2c-.4 0-.7.1-1 .4s-.4.6-.4 1v8.2h-.4v-8.2c0-.4-.1-.7-.4-1s-.6-.4-1-.4h-14.2c-.4 0-.7.1-1 .4s-.4.6-.4 1v8.2h-.4v-8.2c0-.4-.1-.7-.4-1s-.6-.4-1-.4h-14.2c-.4 0-.7.1-1 .4s-.4.6-.4 1v8.2h-.4v-8.2c0-.4-.1-.7-.4-1s-.6-.4-1-.4h-14.2c-.4 0-.7.1-1 .4s-.4.6-.4 1v5.3c-.1 0-.3.1-.4.1v-5.4c0-.4-.1-.7-.4-1s-.6-.4-1-.4h-14.2c-.4 0-.7.1-1 .4s-.4.6-.4 1v4h-.4v-3.9c0-.4-.1-.7-.4-1s-.6-.4-1-.4h-14.2c-.4 0-.7.1-1 .4s-.4.6-.4 1v6.2l-.4.1v-6.4c0-.4-.1-.7-.4-1s-.6-.4-1-.4h-14.1c-.4 0-.7.1-1 .4s-.4.6-.4 1v13c0 .4.1.7.4 1s.6.4 1 .4h9.7v.4h-9.7c-.4 0-.7.1-1 .4s-.4.6-.4 1v13c0 .4.1.7.4 1s.6.4 1 .4h9.5v.4h-9.5c-.4 0-.7.1-1 .4s-.4.6-.4 1v13c0 .4.1.7.4 1s.6.4 1 .4h17c.2 0 .5-.1.7-.2l.3 1c-.3-.3-.6-.4-1-.4h-.5c-.2.2-.3.3-.4.5s-.1.4-.1.7v11.6h-.4v-11.6.1zm42.6 47.2h8.2c.4 0 .7-.2 1-.4.3-.3.4-.6.4-1v-13c0-.4-.1-.7-.4-1s-.6-.4-1-.4h-9.3v-.4h9.4c.4 0 .7-.1 1-.4s.4-.6.4-1v-5.4h.4v5.5c0 .4.1.7.4 1s.6.4 1 .4h14.2c.4 0 .7-.1 1-.4s.4-.6.4-1v-6.9h.4v7c0 .4.1.7.4 1s.6.4 1 .4h14.2c.4 0 .7-.1 1-.4s.4-.6.4-1v-8.4h.4v8.4c0 .4.1.7.4 1s.6.4 1 .4h14.2c.4 0 .7-.1 1-.4s.4-.6.4-1v-9.9h.4v9.9c0 .4.1.7.4 1s.6.4 1 .4h14.2c.4 0 .7-.1 1-.4s.4-.6.4-1v-11.4h.4v29.2h-.2v.2h-79.4l-.1-.6h0zm79.1-1.4v-13c0-.4-.1-.7-.4-1s-.6-.4-1-.4h-14.2c-.4 0-.7.1-1 .4s-.4.6-.4 1v13c0 .4.1.7.4 1s.6.4 1 .4h14.2c.4 0 .7-.2 1-.4.2-.3.4-.7.4-1zm-17.4 0v-13c0-.4-.1-.7-.4-1s-.6-.4-1-.4h-14.2c-.4 0-.7.1-1 .4s-.4.6-.4 1v13c0 .4.1.7.4 1s.6.4 1 .4h14.2c.4 0 .7-.2 1-.4.3-.3.4-.7.4-1zm-17.4 0v-13c0-.4-.1-.7-.4-1s-.6-.4-1-.4h-14.2c-.4 0-.7.1-1 .4s-.4.6-.4 1v13c0 .4.1.7.4 1s.6.4 1 .4h14.2c.4 0 .7-.2 1-.4.3-.3.5-.7.4-1h0zm-17.4 0v-13c0-.4-.1-.7-.4-1s-.6-.4-1-.4h-14.2c-.4 0-.7.1-1 .4s-.4.6-.4 1v13c0 .4.1.7.4 1s.6.4 1 .4h14.2c.4 0 .7-.2 1-.4.3-.3.4-.7.4-1zm-25.8-30.7v-.4H217v.4h6.5zm0-16.2v-.4h-5.1v.4h5.1zm0-16.2v-.4h-5.3c0 .1-.1.3-.1.4h5.4zm0-16.3v-.4h-.7l.1.4h.6z" class="l"/><path d="M474.1 75.4H241.8c-7.2 0-13.1 5.9-13.1 13.1V242c0 7.2 5.9 13.1 13.1 13.1h232.3c7.2 0 13.1-5.9 13.1-13.1V88.5c0-7.2-5.9-13.1-13.1-13.1z"/></g><g class="l"><path d="M240.7 75.4H475c3.2 0 6.3 1.3 8.5 3.6 2.3 2.3 3.5 5.3 3.6 8.5v11.4H228.6V87.5c0-3.2 1.3-6.3 3.6-8.6 2.3-2.2 5.3-3.5 8.5-3.5z" class="d"/><use xlink:href="#B" fill="#df6175"/><path d="M257.9 82.9c1.1 0 2.2.4 3 1.2s1.2 1.9 1.2 3-.4 2.2-1.2 3-1.9 1.2-3 1.2c-.6 0-1.1-.1-1.6-.3s-1-.5-1.4-.9-.7-.9-.9-1.4a4.53 4.53 0 0 1-.3-1.6c0-.6.1-1.1.3-1.6s.5-1 .9-1.4.9-.7 1.4-.9 1-.3 1.6-.3z" fill="#f2d266"/><path d="M271.9 82.9c1.1 0 2.2.4 3 1.2s1.2 1.9 1.2 3-.4 2.2-1.2 3-1.9 1.2-3 1.2c-.6 0-1.1-.1-1.6-.3s-1-.5-1.4-.9-.7-.9-.9-1.4a4.53 4.53 0 0 1-.3-1.6c0-.6.1-1.1.3-1.6s.5-1 .9-1.4.9-.7 1.4-.9a4.53 4.53 0 0 1 1.6-.3z" fill="#699b9f"/><path d="M224.6 294.9s-1.3-39-6.4-41-51.9-6.5-58.2.9c-6.3 7.5 7.3 26.9 6.3 44.8l58.3-4.7z" class="b"/><path d="M158.4 258.4c-1.1 9.1 8.4 25.7 7.6 41.2l14.8-1.3c-.8-6-2-12-3.6-17.8-1.4-4.7-13.2-36.3-18.8-22.1z" class="i"/><path d="M239.8 301.7s-7.7-37.1-18.1-37.7 1 43.9 1 43.9 3.3 2.3 10-.2c6.9-2.6 7.1-6 7.1-6z" class="b"/><g fill="#ff852a"><path d="M182.1 250.1c-2.1 5.5 4.4 16.1 14.4 15.9s15.8-10.5 8.1-17.6c-4.4-4.1-20.3-3.8-22.5 1.7z"/><path d="M204.6 253.4l14.8 7.7c2.3 1.2 16.5 25.9 17.4 58.9h-62.2s-12.2-50.9-11.1-54.1 24.1-13.2 24.1-13.2l17 .7z"/></g><g fill="#d28434"><path d="M230.5 283.3c1.7 5.4 3.1 10.8 4.2 16.4 1.2 6.7 2 13.5 2.1 20.3h-61.9l-7.4-33.2c8 9 20.3 18.4 37.3 19.5 4.8.3 11.5.3 17.3-4.3 7.8-6.3 8.3-16.6 8.4-18.7zm-43.7-23.4c4.3 5.6 19.4 14 20.4 2.1 0 0 .7 7.8-6 9.1-6.6 1.2-14.4-11.2-14.4-11.2z"/></g><path d="M182.8 227c2.7 8.4 4.5 17.1 5.5 25.9 0 0 12.6 13.3 16.2 7.6s-6.7-31.2-6.7-31.2c-2.2-1.5-4.6-2.5-7.2-2.9-2.7-.4-5.3-.2-7.8.6z" class="j"/><path d="M205.2 252.7c-1.8-9.6-6.7-23.4-6.6-23.4-1.6-1.3-3.5-2.2-5.6-2.7-2-.5-4.1-.6-6.2-.2l1.6 11c0 .1 3.7 15.8 16.8 15.3z" fill="#d37b83"/><path d="M182.7 224.2s-1.5-9.4-4.8-16.9.6-8.1 3.8-5c0 0 2.7-7.5 4.5-7.4 1.9.1-1.3 4.6-1.3 4.6s14.6-12.6 25.7-3.7 7.6-.7 4.6.3c.4-2.1 4.1-1.8 6.5.8s7 16.1-6.3 19.2c-13.2 3-32.7 8.1-32.7 8.1z" stroke="#2d334d" stroke-width=".22" stroke-miterlimit="2.61" class="d"/><path d="M216.6 208.1s2.6 13.3 1.6 22.2-6 14.5-10.8 15c-2 .2-10.8 1.2-17.1-4.3-2.9-2.6-5.3-6.6-6.1-12.7 0 0-6.1 2.9-8.2-5.8-2.1-8.5 5.8-9.8 7.8-4.5.3 1.2.5 2.5.6 3.8 2.8-4.7 2.3-12.1 2.3-12.1s10.8-7.5 29.9-1.6z" class="j"/><g fill="#d37b83"><path d="M216.7 208.2l.7 4.3c-1.9-1-3.5-2.5-4.7-4.3-7.4 11.3-25.2 3.9-25.2 3.9-.1 3.7-1.4 7.3-3.7 10.2 2.9-4.8 2.3-12.3 2.3-12.3s11.1-7.9 30.6-1.8zm-32.9 20.6s-5.8 3-7.9-6c-.4-2-.7-4.6 2-4.7s4.2 4 4.2 4c-2.2 0-1.9 5 1.6 4.5l.1 2.2z"/></g><g class="d"><path d="M214.4 205.2s-2 12-28.3 6.2l-1.3-5.2 15.9-2.4 13.7 1.4z"/><path d="M212.3 205.9s-5.8 9.8-20.4 8.1c0 0 14.2 5.3 20.4-8.1zm0-2.1s4.8 13 9.3 8-9.3-8-9.3-8z"/></g><g class="b"><path d="M180.7 304.3s-4.8-38.7-15.2-39.3-1.8 45.8-1.8 45.8 3.3 2.4 10.1-.2c6.7-2.7 6.9-6.3 6.9-6.3z"/><path d="M181.7 305.4c-23.2-14.9-34.1 20.6-4.4 12.3l4.4-12.3z"/></g><g class="j"><path d="M212.7 294.5l-.4-.9c5.2-8.1 5.6-4.7 9.2-9.6 1.9-2.6 2.8 2.2 1.1 4.4-2.6 1.8-9.9 6.1-9.9 6.1zm-46 14.9c-4.8 10.5 5.4 10.6 11.7 8.7s37-15.9 37-15.9l-3-7.7c-11.8 2.9-41 4.4-45.7 14.9z"/><path d="M222.5 290.9l.6-2.5 8.6 2.3-.7 8-6.9.9-1.6-8.7z"/><path d="M210.3 295.7l1.4-1.8 11.5-5.5s2.1 6.4 1 11.2c0 0-5.5 2.5-9.5 2l-4.4-5.9z"/></g><g class="k"><path d="M237.1 320h-42.5c-.5 0-.9-.2-1.2-.6s-.5-.9-.5-1.4c0-.3 0-.5.1-.8.1-.2.2-.5.4-.7s.3-.3.6-.4c.2-.1.4-.2.6-.2h42.5c.4 0 .9.2 1.2.6s.5.9.5 1.4-.2 1.1-.5 1.4c-.3.5-.7.7-1.2.7z"/><path d="M235.7 276.2h56.8c.2 0 .4 0 .6.1s.3.2.5.4c.1.2.2.4.2.6v.6l-9.1 40.4c-.1.5-.4.9-.7 1.2-.4.3-.8.5-1.3.5h-56.8c-.2 0-.4 0-.6-.1s-.4-.2-.5-.4-.2-.4-.2-.6v-.6l9.1-40.4c.1-.5.4-.9.7-1.2.4-.3.8-.5 1.3-.5z"/></g><path d="M236.9 276.2h57.6c.2 0 .4 0 .6.1s.4.2.5.4l.3.6c.1.2 0 .4 0 .6l-9.2 40.4c-.1.5-.4.9-.8 1.2s-.8.5-1.3.5H227c-.2 0-.4 0-.6-.1s-.4-.2-.5-.4l-.3-.6c-.1-.2 0-.4 0-.6l9.2-40.4c.1-.5.4-.9.8-1.2s.8-.5 1.3-.5z" class="i"/><path d="M264.3 292.5c.8 0 1.5.1 2.2.4s1.3.8 1.8 1.4.8 1.3 1 2 .2 1.5 0 2.3c-.3 1.7-1.2 3.2-2.5 4.3s-2.9 1.7-4.6 1.8c-.8 0-1.5-.1-2.2-.4s-1.3-.8-1.8-1.4-.8-1.3-1-2-.2-1.5 0-2.3c.3-1.7 1.2-3.2 2.5-4.3s2.9-1.8 4.6-1.8z" class="k"/><path d="M192 320h19.3s-1.9-5.9-7.8-6.1c-5.9-.1-12.2-.1-11.5 6.1z" class="i"/><path d="M193 320h10.1c-2.4-8.9-10.9-7.4-10.1 0z" class="d"/><path d="M204.1 315.7c-.2-.3-.5-.6-.8-.9l-.2-.2v-.3c0-.1.1-.2.2-.3s.2-.1.3-.1c.2 0 .5 0 .7.1s.4.2.6.4.3.4.3.6v.6c0 .1-.1.2-.2.3s-.2.1-.3.1h-.3c-.1-.2-.2-.2-.3-.3z" class="k"/><g class="d"><path d="M274.5 320h90.7s-9.9-22.3-22.7-11.1c-12.9 11.2-17 10.1-22.6 4s-17.2-6.3-22.4 1.2c-5.3 7.4-12.3-2.9-23 5.9zm-91.7 0H144s4.4-9.7 11.6-9.1c7.2.5 9 8.2 14.4 6.9 5.5-1.3 7.9-5.7 12.8 2.2z" fill-opacity=".23"/></g></g><g fill="#f7faff"><use xlink:href="#C"/><path d="M257.7 154.9h201.9c1.1 0 2 .9 2 2v17.4c0 1.1-.9 2-2 2H257.7c-1.1 0-2-.9-2-2v-17.4c0-1.1.9-2 2-2zm0 30.6h201.9c1.1 0 2 .9 2 2v17.4c0 1.1-.9 2-2 2H257.7c-1.1 0-2-.9-2-2v-17.4c0-1.1.9-2 2-2zm0 30.6h201.9c1.1 0 2 .9 2 2v17.4c0 1.1-.9 2-2 2H257.7c-1.1 0-2-.9-2-2v-17.4a1.94 1.94 0 0 1 2-2z"/></g><g fill="#d8e8fb"><path d="M262.8 133.5h40.8v3.1h-40.8zm0 30.6h40.8v3.1h-40.8zm0 30.5h40.8v3.1h-40.8zm0 30.6h40.8v3.1h-40.8zm83.6-91.7h20.4v3.1h-20.4zm0 30.6h20.4v3.1h-20.4zm0 30.5h20.4v3.1h-20.4zm0 30.6h20.4v3.1h-20.4z"/></g><g fill="#b1c6e0"><path d="M262.8 115.2h17.3v3.1h-17.3zm86.7 0h17.3v3.1h-17.3zm83.5 0h17.3v3.1H433z"/></g><g fill="#d8e8fb"><use xlink:href="#D"/><path d="M449.3 162h4.2c1.1 0 2 .9 2 2v4.2c0 1.1-.9 2-2 2h-4.2c-1.1 0-2-.9-2-2V164c0-1.1.9-2 2-2zm0 30.6h4.2c1.1 0 2 .9 2 2v4.2c0 1.1-.9 2-2 2h-4.2c-1.1 0-2-.9-2-2v-4.2c0-1.1.9-2 2-2zm0 30.6h4.2c1.1 0 2 .9 2 2v4.2c0 1.1-.9 2-2 2h-4.2c-1.1 0-2-.9-2-2v-4.2c0-1.1.9-2 2-2z"/></g><g class="h"><use xlink:href="#E"/><path d="M449.4 137.6c-.1 0-.1-.1-.1-.2.1-.3.1-.6.2-.9l.9.9h-.2c-.3.1-.5.1-.8.2h0 0z"/><use xlink:href="#F"/><path d="M453.4 164.9c0 .1 0 .1 0 0 0 .2-.1.2-.1.3l-.1.1-1-1c.1-.1.2-.3.4-.3.1 0 .2 0 .3.1l.4.4c.1.1.1.1.1.2v.2zm-4 3.3c-.1 0-.1-.1-.1-.2.1-.3.1-.6.2-.9l.9.9h-.2c-.3.1-.5.1-.8.2.1-.1.1-.1 0 0h0z"/><path d="M452 164.5l1 1-2.3 2.3-1-1 2.3-2.3zm1.4 31s0 .1 0 0c0 .1-.1.2-.1.3l-.1.1-1-1c.1-.1.2-.3.4-.3.1 0 .2 0 .3.1l.4.4c.1.1.1.1.1.2v.2z"/><use xlink:href="#G"/><path d="M452 195.1l1 1-2.3 2.3-1-1 2.3-2.3zm1.4 31c0 .1-.1.2-.1.3l-.1.1-1-1c.1-.1.2-.3.4-.3.1 0 .2 0 .3.1l.4.4c.1.1.1.1.1.2v.2zm-4 3.2c-.1 0-.1-.1-.1-.2.1-.3.1-.6.2-.9l.9.9h-.2c-.3.1-.5.2-.8.2h0 0z"/><path d="M452 225.7l1 1-2.3 2.3-1-1 2.3-2.3z"/></g><g class="c d f"><path d="M424.8 40.8h98a4.95 4.95 0 0 1 5 5v18.5a4.95 4.95 0 0 1-5 5h-98a4.95 4.95 0 0 1-5-5V45.8a4.95 4.95 0 0 1 5-5z"/></g><path d="M421.7 35.7h89.9a4.95 4.95 0 0 1 5 5v14.5a4.95 4.95 0 0 1-5 5h-89.9a4.95 4.95 0 0 1-5-5V40.7c0-2.8 2.3-5 5-5z" class="b"/><path d="M450.3 46.9h40.8V50h-40.8z" fill="#b0c6e0"/><g class="h"><path d="M433 45.3v1c0 .1 0 .1.1.1h1.3a.55.55 0 0 1 .5.3c.1.2 0 .4-.1.6l-3 3c-.2.2-.5.2-.8 0l-3-3a.47.47 0 0 1-.1-.6.55.55 0 0 1 .5-.3h1.4c.1 0 .1 0 .1-.1v-1.9c0-.4.2-.6.6-.6h1.9c.4 0 .6.2.6.6v.9z"/><use xlink:href="#H"/><path d="M431.5 51.7h1.5c.3 0 .6.2.6.5s-.2.5-.6.5h-2.9c-.3 0-.6-.2-.6-.5s.2-.5.6-.5h1.4zm0 2.3h1.5c.3 0 .6.2.6.5s-.2.5-.6.5h-2.9c-.3 0-.6-.2-.6-.5s.2-.5.6-.5h1.4z"/></g><g fill="#4282f4"><use xlink:href="#I"/><circle cx="433.2" cy="135.4" r="2.9"/><path d="M433.3 167H426a1.11 1.11 0 0 1-1.1-1.1h0a1.11 1.11 0 0 1 1.1-1.1h7.3a1.11 1.11 0 0 1 1.1 1.1h0a1.11 1.11 0 0 1-1.1 1.1z"/><circle cx="433.2" cy="166" r="2.9"/><path d="M433.3 197.6H426a1.11 1.11 0 0 1-1.1-1.1h0a1.11 1.11 0 0 1 1.1-1.1h7.3a1.11 1.11 0 0 1 1.1 1.1h0a1.11 1.11 0 0 1-1.1 1.1z"/><circle cx="433.2" cy="196.5" r="2.9"/><path d="M433.3 228.1H426a1.11 1.11 0 0 1-1.1-1.1h0a1.11 1.11 0 0 1 1.1-1.1h7.3a1.11 1.11 0 0 1 1.1 1.1h0a1.11 1.11 0 0 1-1.1 1.1z"/><circle cx="433.2" cy="227.1" r="2.9"/></g></g><g class="c d f"><path d="M104.8 119.2h98a4.95 4.95 0 0 1 5 5v18.5a4.95 4.95 0 0 1-5 5h-98a4.95 4.95 0 0 1-5-5v-18.5c0-2.7 2.2-5 5-5z"/></g><path d="M110.9 117.2h89.9a4.95 4.95 0 0 1 5 5v14.5a4.95 4.95 0 0 1-5 5h-89.9a4.95 4.95 0 0 1-5-5v-14.5a4.95 4.95 0 0 1 5-5z" class="b"/></g><g class="h"><path d="M123.2 131.8v.9c0 .1 0 .1.1.1h1.2a.55.55 0 0 1 .5.3c.1.2 0 .4-.1.5l-2.7 2.8c-.2.2-.5.2-.7 0l-2.7-2.8c-.2-.2-.2-.3-.1-.5s.2-.3.5-.3h1.2c.1 0 .1 0 .1-.1V131c0-.4.2-.5.5-.5h1.7a.47.47 0 0 1 .5.5v.8zm-2.7-5.6v-.9c0-.1 0-.1-.1-.1h-1.2a.55.55 0 0 1-.5-.3c-.1-.2 0-.4.1-.5l2.7-2.8c.2-.2.5-.2.7 0l2.7 2.8c.2.2.2.3.1.5s-.2.3-.5.3h-1.2c-.1 0-.1 0-.1.1v1.7a.47.47 0 0 1-.5.5H121a.47.47 0 0 1-.5-.5v-.8z" class="a"/><path d="M121.8 129.5h-1.3a.47.47 0 1 1 0-1h2.7a.47.47 0 1 1 0 1h-1.4z" class="a"/></g><path d="M139.5 128.4h40.8v3.1h-40.8zm392.4 65.2h40.8v3.1h-40.8z" class="a" fill="#b0c6e0"/><path d="M514.3 196h-.9c-.1 0-.1 0-.1.1v1.2a.55.55 0 0 1-.3.5c-.2.1-.4 0-.6-.1l-2.8-2.8c-.2-.2-.2-.5 0-.7l2.8-2.8c.2-.2.3-.2.5-.1s.3.2.3.5v1.2c0 .1 0 .1.1.1h1.7c.4 0 .5.2.5.5v1.8a.47.47 0 0 1-.5.5c-.1.1-.4.1-.7.1zm5.6-2.8h.9c.1 0 .1 0 .1-.1v-1.2a.55.55 0 0 1 .3-.5c.2-.1.4 0 .6.1l2.8 2.8c.2.2.2.5 0 .7l-2.8 2.8c-.2.2-.3.2-.5.1s-.3-.2-.3-.5v-1.2c0-.1 0-.1-.1-.1h-1.7c-.4 0-.5-.2-.5-.5v-1.8a.47.47 0 0 1 .5-.5c.1-.1.4-.1.7-.1zm-3.3 1.4v-1.4a.5.5 0 1 1 1 0v2.7a.5.5 0 1 1-1 0v-1.3z" class="a h"/><g class="a c b e"><path d="M219.5 41.8h-15.9c-1 0-2 .4-2.8 1.2-.7.7-1.2 1.7-1.2 2.8v15.9c0 1 .4 2.1 1.2 2.8.7.7 1.7 1.2 2.8 1.2h15.9c1 0 2.1-.4 2.8-1.2.7-.7 1.2-1.7 1.2-2.8v-16c0-1-.4-2.1-1.2-2.8-.7-.7-1.7-1.1-2.8-1.1zm2.1 19.9c0 .5-.2 1.1-.6 1.4-.4.4-.9.6-1.4.6h-15.9c-.5 0-1.1-.2-1.4-.6-.4-.4-.6-.9-.6-1.4v-16c0-.5.2-1.1.6-1.4.4-.4.9-.6 1.4-.6h15.9c.5 0 1.1.2 1.4.6.4.4.6.9.6 1.4v16z"/></g><g class="a c b e"><path d="M278.2 31.6H261c-2.4 0-4.3 1.9-4.3 4.3v17.3c0 2.4 1.9 4.3 4.3 4.3h17.3c2.4 0 4.3-1.9 4.3-4.3V35.9c-.1-2.4-2-4.3-4.4-4.3z"/></g></svg>