<svg width="118" height="18" viewBox="0 0 150 22" fill="none" xmlns="http://www.w3.org/2000/svg">
<path d="M0 3C0 1.34315 1.34315 0 3 0H26C27.6569 0 29 1.34315 29 3V5V10H0V5V3Z" fill="#6653FE"/>
<path d="M61 3C61 1.34315 62.3431 0 64 0H86C87.6569 0 89 1.34315 89 3V5V10H61V5V3Z" fill="#6653FE"/>
<path d="M90 3C90 1.34315 91.3431 0 93 0H117C118.657 0 120 1.34315 120 3V5V10H90V5V3Z" fill="#6653FE"/>
<path d="M121 3C121 1.34315 122.343 0 124 0H147C148.657 0 150 1.34315 150 3V5V10H121V5V3Z" fill="#6653FE"/>
<mask id="path-5-inside-1_272_39" fill="white">
<path fill-rule="evenodd" clip-rule="evenodd" d="M33 0C31.3431 0 30 1.34315 30 3V5V10H0V22H150V10H60V5V3C60 1.34315 58.6569 0 57 0H33Z"/>
</mask>
<path fill-rule="evenodd" clip-rule="evenodd" d="M33 0C31.3431 0 30 1.34315 30 3V5V10H0V22H150V10H60V5V3C60 1.34315 58.6569 0 57 0H33Z" fill="white"/>
<path d="M30 10V11H31V10H30ZM0 10V9H-1V10H0ZM0 22H-1V23H0V22ZM150 22V23H151V22H150ZM150 10H151V9H150V10ZM60 10H59V11H60V10ZM31 3C31 1.89543 31.8954 1 33 1V-1C30.7909 -1 29 0.790861 29 3H31ZM31 5V3H29V5H31ZM31 10V5H29V10H31ZM0 11H30V9H0V11ZM1 22V10H-1V22H1ZM150 21H0V23H150V21ZM149 10V22H151V10H149ZM60 11H150V9H60V11ZM59 5V10H61V5H59ZM59 3V5H61V3H59ZM57 1C58.1046 1 59 1.89543 59 3H61C61 0.790861 59.2091 -1 57 -1V1ZM33 1H57V-1H33V1Z" fill="#C4C4C4" mask="url(#path-5-inside-1_272_39)"/>
</svg>
