<svg width="12" height="15" viewBox="0 0 12 15" fill="none" xmlns="http://www.w3.org/2000/svg">
<g clip-path="url(#clip0_2_12)">
<path d="M0.871089 15C0.803504 14.9765 0.739675 14.957 0.67209 14.9296C0.262829 14.7652 0.00375469 14.37 0 13.8964C0 12.8124 0 11.7284 0 10.6444C0 8.37856 0 6.11271 0 3.84686C0 3.08767 0.42428 2.64154 1.14894 2.64154C3.54068 2.64154 5.93617 2.64154 8.32791 2.64154C8.91364 2.64154 9.33792 2.99375 9.43179 3.55727C9.44681 3.64728 9.44681 3.7412 9.44681 3.83512C9.44681 7.1615 9.44681 10.484 9.44681 13.8103C9.44681 14.4443 9.18398 14.8043 8.59825 14.9844C8.59074 14.9883 8.58323 14.9961 8.57572 15C6.00375 15 3.4393 15 0.871089 15ZM1.41552 4.11689C1.41552 7.26325 1.41552 10.394 1.41552 13.5247C3.62703 13.5247 5.83104 13.5247 8.03129 13.5247C8.03129 10.3822 8.03129 7.25151 8.03129 4.11689C5.82353 4.11689 3.62328 4.11689 1.41552 4.11689Z" fill="white"/>
<path d="M10.5958 1.46361C10.5244 1.46361 10.4681 1.46361 10.4155 1.46361C8.15896 1.46361 5.90238 1.46361 3.64581 1.46361C3.20651 1.46361 2.89112 1.14271 2.89863 0.712236C2.90238 0.340464 3.1915 0.0273937 3.55195 0.00391338C3.597 0 3.64581 0.00391338 3.69087 0.00391338C6.08261 0 8.4781 0 10.8698 0C11.572 0 12 0.446126 12 1.17402C12 4.89173 12 8.61336 12 12.3311C12 12.7889 11.7109 13.1177 11.3054 13.1216C10.9262 13.1255 10.6108 12.8163 10.5958 12.4211C10.592 12.3624 10.5958 12.3037 10.5958 12.245C10.5958 8.71511 10.5958 5.18915 10.5958 1.65927C10.5958 1.60449 10.5958 1.54579 10.5958 1.46361Z" fill="white"/>
</g>
<defs>
<clipPath id="clip0_2_12">
<rect width="12" height="15" fill="white"/>
</clipPath>
</defs>
</svg>
