<svg width="25" height="25" viewBox="0 0 25 25" fill="none" xmlns="http://www.w3.org/2000/svg">
<path d="M25 12.5C25 19.4036 19.4036 25 12.5 25C5.59644 25 0 19.4036 0 12.5C0 5.59644 5.59644 0 12.5 0C19.4036 0 25 5.59644 25 12.5Z" fill="#41359F"/>
<path d="M11.9859 10.683C11.6502 11.0476 11.3219 11.404 10.9938 11.7604C10.094 12.7377 9.19451 13.7152 8.29529 14.693C8.12154 14.8823 7.91195 14.9931 7.64101 14.964C7.5125 14.9548 7.38947 14.9117 7.28637 14.8397C7.18327 14.7676 7.10438 14.6697 7.05897 14.5574C6.94933 14.3096 6.99475 14.0787 7.1771 13.8763C7.48034 13.5396 7.79016 13.2081 8.09714 12.8744C9.19509 11.6808 10.2927 10.4868 11.39 9.29267C11.594 9.0702 11.839 8.94093 12.1503 9.02673C12.3033 9.06946 12.4408 9.15015 12.5482 9.26015C13.9773 10.8023 15.401 12.3487 16.8195 13.8994C17.0876 14.1915 17.0521 14.6041 16.7461 14.842C16.4325 15.0858 16.0056 15.0443 15.7248 14.7393C14.5178 13.4284 13.3113 12.1172 12.1052 10.8055C12.0697 10.767 12.032 10.7303 11.9859 10.683Z" fill="white"/>
</svg>
