<svg width="24" height="25" viewBox="0 0 24 25" fill="none" xmlns="http://www.w3.org/2000/svg">
<path d="M23.9998 5.43789C23.9338 5.82011 23.8467 6.1984 23.7389 6.57101C23.4215 7.55181 22.805 8.40867 21.976 9.02146C21.1469 9.63425 20.1469 9.97224 19.1161 9.98805C18.4231 10.0117 17.7286 9.99174 17.018 9.99174V8.01511C17.0941 8.01157 17.1761 8.0054 17.2582 8.00438C17.9298 7.99671 18.6042 8.02574 19.2726 7.97585C20.0122 7.91459 20.7019 7.57827 21.2056 7.03329C21.7094 6.48831 21.9904 5.77428 21.9934 5.03217C22.0012 4.29458 21.7371 3.57995 21.2513 3.02481C20.7656 2.46968 20.0924 2.11298 19.3603 2.02284C19.2203 2.0084 19.0797 2.00226 18.939 2.00445C14.3139 2.00351 9.68885 2.00384 5.06388 2.00546C4.66492 1.99709 4.26831 2.06843 3.89727 2.21527C3.52623 2.36212 3.18822 2.58154 2.90305 2.86066C2.61788 3.13979 2.39127 3.47301 2.23651 3.84082C2.08174 4.20863 2.00194 4.60362 2.00175 5.00266C2.00157 5.4017 2.08102 5.79677 2.23544 6.16472C2.38987 6.53267 2.61616 6.8661 2.90108 7.14549C3.18599 7.42488 3.52379 7.6446 3.8947 7.79179C4.2656 7.93898 4.66214 8.01068 5.06111 8.00268C5.69269 8.01011 6.32443 8.0038 6.97402 8.0038V9.99761C6.67885 9.99761 6.39165 10.007 6.10531 9.99577C5.40371 10.0065 4.70219 9.96926 4.00565 9.88444C2.84345 9.65093 1.80238 9.01115 1.06905 8.07977C0.335712 7.14839 -0.0419648 5.9863 0.0037059 4.80175C0.0493765 3.6172 0.515409 2.48762 1.31828 1.61547C2.12115 0.743324 3.20838 0.185603 4.38511 0.0422695C4.43812 0.0316248 4.49037 0.0175054 4.54153 0H19.4519C19.5116 0.0151418 19.5705 0.0352344 19.6311 0.0447466C20.5425 0.150946 21.4056 0.511222 22.122 1.08445C22.8384 1.65769 23.3792 2.42078 23.6827 3.28664C23.8155 3.69958 23.9215 4.12067 24 4.54729L23.9998 5.43789Z" fill="#131313"/>
<path d="M20.3495 24.0025H20.0851C16.4281 24.0025 12.7712 24.0036 9.11434 24.0059C9.03823 24.0097 8.96219 23.9968 8.89162 23.9681C8.82104 23.9393 8.75764 23.8954 8.7059 23.8395C7.11339 22.2387 5.51039 20.6483 3.91997 19.0454C3.35485 18.5044 3.02372 17.7639 2.99731 16.982C2.97091 16.2001 3.25133 15.4388 3.77866 14.8609C4.30599 14.283 5.03842 13.9342 5.81946 13.8891C6.6005 13.844 7.36823 14.1061 7.95861 14.6194C8.2498 14.8788 8.51774 15.1648 8.79699 15.4379C8.85038 15.4899 8.90643 15.5389 8.99636 15.6216V15.3277C8.99636 12.5699 8.99688 9.81201 8.99791 7.05417C8.98342 6.26395 9.28174 5.50001 9.82789 4.92873C10.3741 4.35745 11.1238 4.02509 11.9139 4.00405C12.7039 3.98301 13.4703 4.27499 14.0461 4.81639C14.6219 5.3578 14.9605 6.10477 14.988 6.89464C15.0189 8.46439 14.9963 10.0352 14.9974 11.6055C14.9974 11.6986 14.9974 11.7918 14.9974 11.8979C15.7625 12.1176 16.518 12.3356 17.2743 12.5515C18.2792 12.8383 19.2845 13.1244 20.29 13.4096C20.8575 13.5412 21.3495 13.8926 21.6581 14.3867C21.9667 14.8808 22.0666 15.4772 21.9358 16.0448C21.4885 18.3659 21.0143 20.6816 20.5511 22.9994C20.4855 23.3277 20.4192 23.6558 20.3495 24.0025ZM11.0028 20.3924L10.9232 20.45C10.8788 20.3773 10.8287 20.3083 10.7733 20.2436C9.4653 18.9326 8.15597 17.6231 6.8453 16.3149C6.76415 16.2304 6.67712 16.1518 6.58488 16.0796C6.46721 15.9879 6.3294 15.9256 6.18285 15.8977C6.03631 15.8699 5.88523 15.8773 5.74214 15.9194C5.56498 15.9655 5.40391 16.0594 5.27653 16.1909C5.14916 16.3224 5.0604 16.4863 5.01994 16.6649C4.97948 16.8434 4.9889 17.0296 5.04715 17.2031C5.10541 17.3767 5.21026 17.5309 5.35025 17.6488C6.7552 19.0617 8.16477 20.4699 9.57898 21.8734C9.6556 21.9456 9.75535 21.9882 9.86046 21.9936C12.7439 21.9999 15.6274 22.0025 18.5109 22.0015C18.6631 22.0015 18.7239 21.9601 18.755 21.8018C19.089 20.1023 19.4331 18.4046 19.7733 16.7064C19.8586 16.2809 19.9397 15.8545 20.0232 15.426C19.9536 15.4023 19.9103 15.3856 19.8659 15.3729C17.6537 14.7398 15.4409 14.1086 13.2276 13.4792C13.1904 13.4754 13.1544 13.464 13.1218 13.4457C13.0892 13.4273 13.0608 13.4024 13.0384 13.3725C13.0159 13.3426 12.9999 13.3084 12.9913 13.272C12.9827 13.2356 12.9818 13.1978 12.9885 13.1611C12.9963 11.278 12.9934 9.39503 12.9929 7.51225C12.9929 7.30919 12.9974 7.10541 12.9828 6.90323C12.9628 6.67779 12.8661 6.46604 12.7088 6.30339C12.5514 6.14073 12.343 6.03704 12.1183 6.00966C11.8936 5.98228 11.6664 6.03287 11.4746 6.15298C11.2828 6.27308 11.138 6.45541 11.0645 6.66946C11.0191 6.84255 10.9991 7.02134 11.0052 7.2002C11.0021 11.5052 11.0013 15.8102 11.0027 20.1152L11.0028 20.3924Z" fill="#131313"/>
</svg>
