<svg width="48" height="21" viewBox="0 0 51 22" fill="none" xmlns="http://www.w3.org/2000/svg">
<path d="M16.1318 15.7116C15.1528 15.7116 14.1735 15.7258 13.195 15.7038C12.855 15.6962 12.7422 15.7763 12.7478 16.1307C12.7695 17.5043 12.7489 18.8785 12.7596 20.2524C12.7654 20.9969 12.4797 21.5686 11.7751 21.8631C11.0665 22.1593 10.4565 21.9486 9.92399 21.4225C6.80637 18.3427 3.68636 15.2652 0.563952 12.1901C-0.187884 11.4475 -0.187871 10.5524 0.563312 9.81045C3.69304 6.7194 6.82514 3.63069 9.95962 0.544331C10.4798 0.0312025 11.0868 -0.151021 11.7738 0.135754C12.4567 0.420837 12.7603 0.969397 12.7578 1.69635C12.7532 3.08664 12.7691 4.47713 12.7479 5.86713C12.7425 6.2186 12.85 6.29904 13.1927 6.29609C15.1008 6.27986 17.0091 6.28698 18.9173 6.28882C20.0986 6.28996 20.7214 6.90783 20.7224 8.07909C20.7241 10.0419 20.7239 12.0046 20.722 13.9674C20.7204 15.0771 20.086 15.7067 18.9693 15.7108C18.0235 15.7143 17.0776 15.7115 16.1318 15.7116Z" fill="#CACACA"/>
<path d="M34.8682 6.28826C35.8471 6.28826 36.8265 6.274 37.805 6.296C38.145 6.30365 38.2578 6.22354 38.2522 5.86916C38.2306 4.49555 38.251 3.12135 38.2404 1.74745C38.2346 1.00297 38.5203 0.431243 39.2249 0.136715C39.9335 -0.15944 40.5435 0.0512498 41.076 0.577286C44.1936 3.65716 47.3136 6.73467 50.4361 9.80982C51.1879 10.5524 51.1879 11.4475 50.4367 12.1894C47.307 15.2805 44.1749 18.3692 41.0404 21.4556C40.5202 21.9687 39.9132 22.1509 39.2262 21.8641C38.5432 21.5791 38.2397 21.0305 38.2421 20.3035C38.2468 18.9133 38.2309 17.5228 38.2521 16.1328C38.2574 15.7813 38.15 15.7008 37.8073 15.7038C35.8992 15.72 33.9909 15.7129 32.0827 15.7111C30.9014 15.7099 30.2786 15.092 30.2776 13.9207C30.2759 11.9579 30.276 9.99516 30.278 8.03239C30.2796 6.92277 30.914 6.29309 32.0307 6.289C32.9765 6.28551 33.9223 6.28829 34.8682 6.28826Z" fill="#CACACA"/>
<path d="M23.9092 10.9648C23.9092 9.46219 23.9094 7.95963 23.9099 6.45705C23.9117 5.424 24.5695 4.71332 25.5113 4.71829C26.4473 4.72323 27.0948 5.43796 27.0954 6.47669C27.0971 9.49816 27.0971 12.5196 27.0952 15.5411C27.0945 16.5714 26.4313 17.2866 25.4927 17.2813C24.5572 17.2761 23.9111 16.5604 23.9097 15.5214C23.9077 14.0026 23.9075 12.4837 23.9092 10.9648Z" fill="#949494"/>
</svg>
