<svg width="16" height="32" viewBox="0 0 22 40" fill="none" xmlns="http://www.w3.org/2000/svg">
<path d="M15.7116 10.9601C15.7116 11.9391 15.7259 12.9185 15.7039 13.897C15.6962 14.237 15.7763 14.3498 16.1307 14.3442C17.5043 14.3225 18.8785 14.343 20.2524 14.3324C20.9969 14.3266 21.5686 14.6123 21.8632 15.3169C22.1593 16.0255 21.9486 16.6355 21.4226 17.168C18.3427 20.2856 15.2652 23.4056 12.1901 26.528C11.4475 27.2799 10.5523 27.2799 9.81043 26.5287C6.71938 23.3989 3.63068 20.2668 0.544317 17.1324C0.0311885 16.6122 -0.151036 16.0052 0.13574 15.3182C0.420824 14.6352 0.969383 14.3317 1.69634 14.3341C3.08662 14.3387 4.47712 14.3229 5.86711 14.3441C6.21858 14.3494 6.29904 14.242 6.29607 13.8992C6.27985 11.9912 6.28697 10.0829 6.28881 8.17466C6.29003 6.99339 6.90789 6.37056 8.07915 6.36958C10.0419 6.36791 12.0047 6.36803 13.9675 6.36993C15.0771 6.37156 15.7068 7.00596 15.7109 8.12269C15.7144 9.06849 15.7116 10.0143 15.7116 10.9601Z" fill="#EEEEEE"/>
<path d="M11.0352 0.00113969C12.5377 0.00113975 14.0403 0.00137041 15.5429 0.00183182C16.5759 0.00369499 17.2866 0.66147 17.2817 1.60326C17.2767 2.5393 16.562 3.18673 15.5232 3.18734C12.5018 3.18912 9.48032 3.18906 6.45886 3.18717C5.42855 3.18644 4.71335 2.52326 4.71859 1.58466C4.72384 0.649199 5.4395 0.00304256 6.47849 0.00165857C7.99739 -0.000364182 9.51628 -0.00053719 11.0352 0.00113969Z" fill="#B1B1B1"/>
<path d="M11.0352 30.5931C12.5377 30.5931 14.0403 30.5934 15.5429 30.5938C16.5759 30.5957 17.2866 31.2535 17.2817 32.1952C17.2767 33.1313 16.562 33.7787 15.5232 33.7793C12.5018 33.7811 9.48032 33.781 6.45886 33.7792C5.42855 33.7784 4.71335 33.1152 4.71859 32.1766C4.72384 31.2412 5.4395 30.595 6.47849 30.5936C7.99739 30.5916 9.51628 30.5914 11.0352 30.5931Z" fill="#B1B1B1"/>
<path d="M11.0352 37.5931C12.5377 37.5931 14.0403 37.5934 15.5429 37.5938C16.5759 37.5957 17.2866 38.2535 17.2817 39.1952C17.2767 40.1313 16.562 40.7787 15.5232 40.7793C12.5018 40.7811 9.48032 40.781 6.45886 40.7792C5.42855 40.7784 4.71335 40.1152 4.71859 39.1766C4.72384 38.2412 5.4395 37.595 6.47849 37.5936C7.99739 37.5916 9.51628 37.5914 11.0352 37.5931Z" fill="#B1B1B1"/>
</svg>
