<svg width="20" height="18" viewBox="0 0 20 18" fill="none" xmlns="http://www.w3.org/2000/svg">
<g clip-path="url(#clip0_130_120)">
<path d="M9.8287 2C10.1566 2.02611 10.4718 2.13798 10.7428 2.32438C11.0138 2.51077 11.231 2.76515 11.3727 3.062L17.2847 12.916C18.1357 14.331 17.4787 15.489 15.8287 15.489H3.8287C2.1787 15.489 1.5217 14.33 2.3727 12.916L8.2847 3.062C8.42636 2.76515 8.64358 2.51077 8.91458 2.32438C9.18558 2.13798 9.50082 2.02611 9.8287 2ZM9.8287 0C9.15495 0.0224464 8.499 0.221984 7.92688 0.578528C7.35476 0.935071 6.88666 1.43604 6.5697 2.031L0.6577 11.887C0.276135 12.4446 0.0527928 13.0952 0.011414 13.7696C-0.0299647 14.4439 0.112167 15.1169 0.4227 15.717C0.777547 16.2924 1.28156 16.7609 1.88124 17.0729C2.48092 17.3849 3.15388 17.5287 3.8287 17.489H15.8287C16.5034 17.529 17.1764 17.3854 17.7761 17.0736C18.3758 16.7618 18.8799 16.2933 19.2347 15.718C19.545 15.1179 19.687 14.4449 19.6456 13.7706C19.6042 13.0962 19.381 12.4457 18.9997 11.888L13.0877 2.034C12.7714 1.43828 12.3035 0.936543 11.7313 0.579424C11.1591 0.222304 10.5028 0.0224395 9.8287 0Z" fill="#E60023"/>
<path d="M9.82881 13.789C10.5468 13.789 11.1288 13.207 11.1288 12.489C11.1288 11.7711 10.5468 11.189 9.82881 11.189C9.11084 11.189 8.52881 11.7711 8.52881 12.489C8.52881 13.207 9.11084 13.789 9.82881 13.789Z" fill="#E60023"/>
<path d="M11.3291 6.48901C11.3297 6.26739 11.2812 6.04838 11.1871 5.84774C11.093 5.64709 10.9556 5.46979 10.7848 5.32859C10.614 5.18739 10.414 5.0858 10.1992 5.03112C9.98444 4.97643 9.76022 4.97002 9.54268 5.01234C9.32513 5.05466 9.11967 5.14466 8.94106 5.27587C8.76245 5.40707 8.61513 5.57623 8.5097 5.77117C8.40427 5.96611 8.34335 6.18198 8.33132 6.40328C8.31928 6.62458 8.35643 6.84579 8.4401 7.05101C8.9941 8.42701 9.8291 10.489 9.8291 10.489C9.8291 10.489 10.6641 8.42701 11.2201 7.05101C11.2913 6.87216 11.3283 6.68152 11.3291 6.48901Z" fill="#E60023"/>
</g>
<defs>
<clipPath id="clip0_130_120">
<rect width="19.6574" height="17.489" fill="white"/>
</clipPath>
</defs>
</svg>
