<svg width="15" height="17" viewBox="0 0 17 19" fill="none" xmlns="http://www.w3.org/2000/svg">
<path d="M1.89185 4.63259C1.57304 4.63259 1.29343 4.63454 1.01386 4.63219C0.420768 4.62719 0.00160736 4.24566 4.62438e-06 3.71201C-0.00160403 3.17687 0.41664 2.7872 1.00692 2.78605C2.46035 2.78322 3.91379 2.78289 5.36722 2.78506C5.45487 2.78506 5.54251 2.78506 5.64479 2.78506C5.66482 2.4942 5.66388 2.21322 5.70664 1.93881C5.78821 1.41493 6.05378 0.935552 6.45737 0.583705C6.86095 0.231857 7.37714 0.0296954 7.91653 0.0122297C8.42369 -0.000826153 8.94185 -0.0212795 9.43806 0.0606797C10.5295 0.240953 11.3043 1.18063 11.3305 2.26854C11.3344 2.43309 11.331 2.5978 11.331 2.78506H11.6159C13.0841 2.78514 14.5523 2.78125 16.0205 2.78705C16.7045 2.78976 17.1539 3.38342 16.951 3.99681C16.8927 4.17371 16.7809 4.32894 16.6304 4.44179C16.4799 4.55464 16.298 4.61974 16.1089 4.62841C15.9469 4.63614 15.7844 4.63203 15.6221 4.63256C15.4613 4.63309 15.3005 4.63268 15.1064 4.63268V4.92671C15.1064 8.20148 15.1131 11.4763 15.1034 14.751C15.0985 16.3923 14.3123 17.5611 12.8019 18.253C12.3215 18.4731 11.8037 18.5465 11.2728 18.5455C9.42838 18.5419 7.5839 18.5481 5.73946 18.5431C3.53192 18.5371 1.89595 16.9316 1.89303 14.7648C1.88863 11.49 1.88822 8.21523 1.89181 4.94043C1.89184 4.84804 1.89185 4.75566 1.89185 4.63259ZM3.7733 4.64532V4.88905C3.7733 8.16321 3.77348 11.4374 3.77385 14.7115C3.77444 15.9118 4.5748 16.6949 5.79983 16.6961C7.59967 16.6978 9.39951 16.6971 11.1994 16.694C11.3909 16.6964 11.5821 16.6771 11.7692 16.6365C12.6739 16.4242 13.224 15.6925 13.2244 14.7104C13.2257 11.4363 13.2259 8.16212 13.2249 4.88795V4.64532H3.7733ZM9.43869 2.77282C9.43869 2.61855 9.44315 2.47577 9.43775 2.33335C9.42693 2.0483 9.26225 1.86841 8.97289 1.85574C8.65657 1.8419 8.33876 1.84355 8.02228 1.85562C7.7796 1.86487 7.59457 2.01839 7.57192 2.22871C7.56109 2.40989 7.55979 2.59151 7.56802 2.77282H9.43869Z" fill="#f10b0b"/>
<path d="M5.66591 10.6625C5.66604 9.58375 5.66305 8.50494 5.66745 7.42618C5.66461 7.21447 5.73602 7.00824 5.86969 6.8421C6.00335 6.67596 6.19114 6.56003 6.40154 6.51376C6.61195 6.46748 6.83215 6.49369 7.02521 6.58797C7.21827 6.68226 7.37242 6.83888 7.46181 7.03157C7.52279 7.17864 7.55419 7.33592 7.55427 7.49472C7.56013 9.60883 7.56105 11.723 7.55703 13.8371C7.5562 14.4275 7.14969 14.8437 6.59707 14.8372C6.05464 14.8308 5.66692 14.415 5.66618 13.8337C5.66476 12.7767 5.66467 11.7196 5.66591 10.6625Z" fill="#f10b0b"/>
<path d="M11.3324 10.6843C11.3323 11.7559 11.3351 12.8275 11.331 13.899C11.3354 14.1036 11.2697 14.3038 11.1444 14.4673C11.019 14.6308 10.8413 14.7482 10.6398 14.8005C10.2348 14.9127 9.79411 14.7573 9.59201 14.3936C9.50082 14.2293 9.45093 14.0459 9.44649 13.8588C9.43671 11.7302 9.43513 9.60158 9.44176 7.47292C9.44284 6.89761 9.85207 6.4873 10.3974 6.49173C10.9405 6.49615 11.3312 6.91139 11.3321 7.4914C11.3337 8.55569 11.3338 9.62 11.3324 10.6843Z" fill="#f10b0b"/>
</svg>
