<svg width="24" height="25" viewBox="0 0 24 25" fill="none" xmlns="http://www.w3.org/2000/svg">
<path d="M23.9998 12.187C23.8777 12.397 23.6932 12.564 23.472 12.665C23.2507 12.7659 23.0035 12.7959 22.7645 12.7506C22.6803 12.7422 22.5945 12.7494 22.4915 12.7494C22.4297 13.2912 22.3701 13.8172 22.3096 14.3431C22.2346 14.9944 22.1711 15.6473 22.0795 16.2963C22.0492 16.5317 21.9288 16.7463 21.7436 16.8952C21.5584 17.0441 21.3226 17.1157 21.0858 17.095C20.9639 17.0872 20.8449 17.0552 20.7358 17.0007C20.6266 16.9462 20.5295 16.8703 20.4503 16.7776C20.371 16.685 20.3112 16.5773 20.2744 16.4612C20.2376 16.345 20.2246 16.2226 20.2361 16.1013C20.3027 15.2847 20.4052 14.4711 20.4956 13.6565C20.5636 13.0437 20.6388 12.4317 20.7066 11.8187C20.7069 11.687 20.7347 11.5569 20.7881 11.4364C20.8416 11.316 20.9195 11.208 21.0169 11.1193C21.1144 11.0305 21.2293 10.9629 21.3543 10.9208C21.4793 10.8787 21.6117 10.863 21.7431 10.8747C21.8748 10.8738 22.0066 10.8747 22.1533 10.8747V9.01168H1.89911V10.8745H2.19051C7.37123 10.8745 12.552 10.8738 17.7327 10.8723C17.8849 10.8576 18.0384 10.8762 18.1827 10.9265C18.327 10.9769 18.4586 11.0579 18.5685 11.1639C18.6956 11.2883 18.7826 11.4476 18.8185 11.6216C18.8543 11.7956 18.8374 11.9763 18.7697 12.1406C18.7109 12.308 18.6039 12.4544 18.4622 12.5615C18.3205 12.6686 18.1503 12.7317 17.9729 12.7429C17.8715 12.7507 17.7697 12.7528 17.668 12.7492C13.0351 12.7495 8.40221 12.7496 3.76932 12.7494H3.4689C3.52749 13.2452 3.58231 13.7159 3.6388 14.1863C3.83515 15.8214 4.03192 17.4564 4.22912 19.0914C4.28719 19.5717 4.3307 20.0547 4.41407 20.5307C4.47732 20.9808 4.70434 21.3919 5.05182 21.6855C5.39931 21.9792 5.84293 22.1349 6.29806 22.1229C6.6736 22.1288 7.0493 22.124 7.42498 22.124C10.8684 22.124 14.3118 22.1238 17.7551 22.1235C18.1611 22.1465 18.5635 22.0368 18.9015 21.811C19.2395 21.5853 19.4946 21.2558 19.6282 20.8724C19.6801 20.701 19.7233 20.5271 19.7576 20.3513C19.8119 20.1122 19.9586 19.9043 20.1658 19.7728C20.373 19.6413 20.6239 19.597 20.8637 19.6493C21.099 19.7025 21.3053 19.8431 21.4407 20.0424C21.5761 20.2418 21.6304 20.4851 21.5928 20.7231C21.4769 21.6398 21.0256 22.4814 20.3256 23.0859C19.6255 23.6904 18.7263 24.0151 17.8009 23.9976C14.0132 24.002 10.2255 24.0024 6.43775 23.9988C4.25524 23.9987 2.7195 22.5867 2.4889 20.4165C2.29839 18.6239 2.06321 16.836 1.84837 15.0459C1.76463 14.3485 1.68157 13.651 1.59918 12.9533C1.59195 12.8927 1.58098 12.8325 1.56843 12.7493C1.36637 12.7493 1.17269 12.7524 0.97913 12.7487C0.849348 12.7543 0.719809 12.7329 0.598768 12.6859C0.477727 12.6388 0.367838 12.567 0.276102 12.4752C0.184366 12.3834 0.112795 12.2735 0.0659504 12.1526C0.0191054 12.0316 -0.00198673 11.9022 0.00401791 11.7727C-0.00144097 10.5464 -0.00133756 9.32008 0.00432928 8.09374C-0.00125975 7.96405 0.0204379 7.83464 0.0680229 7.71384C0.115608 7.59304 0.188024 7.48353 0.280603 7.39238C0.373182 7.30123 0.483868 7.23046 0.605525 7.18464C0.727181 7.13881 0.857108 7.11894 0.986929 7.12631C1.97296 7.12094 2.95914 7.11679 3.94512 7.13051C4.0469 7.13963 4.14923 7.12054 4.24085 7.07536C4.33247 7.03017 4.40983 6.96063 4.46442 6.87439C5.9994 4.77387 7.54653 2.68218 9.0838 0.583295C9.25561 0.311988 9.51409 0.106482 9.81742 2.57374e-05H10.193C10.3063 0.0497595 10.4163 0.106554 10.5225 0.170074C10.9918 0.489254 11.0563 1.07351 10.6781 1.58822C9.37395 3.36317 8.06874 5.13726 6.76245 6.91049C6.71855 6.97017 6.67943 7.03331 6.62728 7.11077H17.4574C17.4 7.0262 17.3596 6.96213 17.3148 6.90122C16.3937 5.64936 15.4722 4.39772 14.5505 3.14631C14.1523 2.60539 13.7468 2.06964 13.3582 1.52187C13.2609 1.40293 13.1947 1.26177 13.1656 1.11103C13.1364 0.960283 13.1452 0.804671 13.1911 0.658139C13.237 0.511606 13.3186 0.378733 13.4286 0.271429C13.5386 0.164125 13.6735 0.085743 13.8213 0.0433096C13.8495 0.0306872 13.8767 0.0162192 13.903 0H14.2787C14.579 0.112373 14.8341 0.319892 15.0051 0.590795C16.5552 2.70602 18.1083 4.81909 19.6644 6.93C19.7034 6.99504 19.7596 7.0481 19.8268 7.08335C19.8941 7.11859 19.9697 7.13467 20.0455 7.12981C20.9522 7.11878 21.8597 7.14354 22.7659 7.11754C23.2891 7.10251 23.7177 7.21757 23.9998 7.68724V12.187Z" fill="#131313"/>
</svg>
