<svg width="13" height="13" viewBox="0 0 13 13" fill="none" xmlns="http://www.w3.org/2000/svg">
<path d="M13 2.73907C12.9769 2.81918 12.9548 2.89962 12.9304 2.97936C12.8581 3.21589 12.7194 3.40962 12.5458 3.58239C12.4113 3.71619 12.282 3.85513 12.159 3.98284C11.1073 2.93143 10.07 1.89427 9.02307 0.847618C9.3914 0.465333 9.73977 0.0216775 10.3634 0.00106768C10.734 -0.0111792 11.0744 0.080729 11.3436 0.339116C11.7892 0.766762 12.2233 1.20668 12.6553 1.64821C12.8305 1.8273 12.9274 2.05336 12.9754 2.29946C12.981 2.32797 12.9917 2.3555 13 2.38349V2.73907Z" fill="#8E8E8E"/>
<path d="M0.29806 13.0004C0.0275523 12.8755 -0.0366541 12.7573 0.0177974 12.4589C0.187579 11.5284 0.358959 10.5981 0.531936 9.66813C0.537729 9.6441 0.545326 9.62054 0.554662 9.59766L3.40273 12.4451C3.14229 12.494 2.87812 12.5441 2.6137 12.593C1.91593 12.7219 1.21813 12.8507 0.520309 12.9793C0.504647 12.9844 0.489713 12.9915 0.475885 13.0004H0.29806Z" fill="#8E8E8E"/>
<path d="M8.46599 1.4375L11.5647 4.5347C9.07721 7.02105 6.58589 9.5112 4.09076 12.0052L0.99231 8.90956L8.46599 1.4375Z" fill="#8E8E8E"/>
</svg>
