<svg width="19" height="35" viewBox="0 0 22 51" fill="none" xmlns="http://www.w3.org/2000/svg">
<path d="M15.7116 34.8682C15.7116 35.8472 15.7258 36.8265 15.7038 37.805C15.6962 38.145 15.7763 38.2578 16.1307 38.2522C17.5043 38.2305 18.8785 38.2511 20.2524 38.2404C20.9969 38.2346 21.5686 38.5203 21.8631 39.2249C22.1593 39.9335 21.9486 40.5435 21.4225 41.076C18.3427 44.1936 15.2652 47.3136 12.1901 50.436C11.4475 51.1879 10.5524 51.1879 9.81045 50.4367C6.7194 47.307 3.63069 44.1749 0.54433 41.0404C0.031202 40.5202 -0.151022 39.9132 0.135753 39.2262C0.420836 38.5433 0.969397 38.2397 1.69635 38.2422C3.08663 38.2468 4.47713 38.2309 5.86713 38.2521C6.2186 38.2575 6.29904 38.15 6.29609 37.8073C6.27986 35.8992 6.28698 33.9909 6.28882 32.0827C6.28996 30.9014 6.90783 30.2786 8.07909 30.2776C10.0419 30.2759 12.0046 30.2761 13.9674 30.278C15.0771 30.2796 15.7067 30.914 15.7108 32.0307C15.7143 32.9765 15.7115 33.9224 15.7116 34.8682Z" fill="#EEEEEE"/>
<path d="M6.28826 16.1318C6.28826 15.1529 6.274 14.1735 6.296 13.195C6.30365 12.855 6.22354 12.7422 5.86916 12.7478C4.49555 12.7694 3.12135 12.749 1.74745 12.7596C1.00297 12.7654 0.431242 12.4797 0.136714 11.7751C-0.15944 11.0665 0.0512493 10.4565 0.577286 9.924C3.65716 6.80637 6.73467 3.68635 9.80982 0.563943C10.5524 -0.187893 11.4475 -0.18788 12.1894 0.563306C15.2805 3.69303 18.3692 6.82514 21.4556 9.95962C21.9687 10.4798 22.1509 11.0868 21.8641 11.7738C21.5791 12.4568 21.0305 12.7603 20.3035 12.7579C18.9133 12.7532 17.5228 12.7691 16.1328 12.7479C15.7813 12.7426 15.7008 12.85 15.7038 13.1927C15.72 15.1008 15.7129 17.0091 15.7111 18.9173C15.7099 20.0986 15.092 20.7214 13.9207 20.7224C11.9579 20.7241 9.99516 20.724 8.03239 20.722C6.92277 20.7204 6.29309 20.086 6.289 18.9693C6.28551 18.0235 6.28829 17.0777 6.28826 16.1318Z" fill="#EEEEEE"/>
<path d="M10.9647 27.0908C9.4621 27.0908 7.95954 27.0906 6.45696 27.0901C5.42391 27.0883 4.71322 26.4305 4.7182 25.4887C4.72314 24.5527 5.43787 23.9052 6.4766 23.9046C9.49807 23.9029 12.5195 23.9029 15.541 23.9048C16.5713 23.9055 17.2865 24.5687 17.2813 25.5073C17.276 26.4428 16.5603 27.0889 15.5214 27.0903C14.0025 27.0923 12.4836 27.0925 10.9647 27.0908Z" fill="#B1B1B1"/>
</svg>
