<svg width="15" height="18" viewBox="0 0 15 18" fill="none" xmlns="http://www.w3.org/2000/svg">
<path d="M2.4721 17.9999C2.35474 17.9731 2.23688 17.9484 2.1201 17.9193C1.51813 17.7695 0.982923 17.4209 0.599408 16.9288C0.215893 16.4366 0.00604322 15.8292 0.00316146 15.2028C-0.00117405 12.0157 -0.0010506 8.82857 0.00353312 5.64145C0.00562124 4.90294 0.296417 4.19517 0.812593 3.67228C1.32877 3.14939 2.02851 2.85373 2.75944 2.8497C4.99186 2.84242 7.2243 2.84242 9.45675 2.8497C10.9675 2.85458 12.208 4.09911 12.2119 5.62371C12.2201 8.82252 12.2202 12.0214 12.2122 15.2202C12.2093 16.5981 11.1907 17.7639 9.84029 17.9681C9.80747 17.9759 9.77537 17.9865 9.74436 17.9999H2.4721ZM1.39344 10.4191C1.39344 11.9774 1.39349 13.5358 1.3936 15.0942C1.39395 15.9981 1.98053 16.5931 2.87251 16.5934C5.02952 16.5941 7.18653 16.5941 9.34354 16.5934C10.2354 16.5931 10.8226 15.9981 10.8228 15.0943C10.8234 11.9834 10.8234 8.87255 10.8228 5.76166C10.8227 4.84584 10.2386 4.25414 9.33497 4.25394C7.18375 4.25347 5.03254 4.25347 2.88133 4.25394C1.97729 4.25414 1.39384 4.84557 1.39356 5.76153C1.3931 7.31404 1.39306 8.86656 1.39344 10.4191Z" fill="#B1B1B1"/>
<path d="M12.5278 0C12.6674 0.0335039 12.808 0.0631936 12.9463 0.10111C14.1433 0.429058 14.9938 1.52587 14.9959 2.77826C15.0018 6.31587 15.0023 9.85349 14.9976 13.3911C14.9975 13.8198 14.7006 14.1319 14.3028 14.1323C13.8994 14.1326 13.6069 13.8168 13.6069 13.3746C13.6062 9.87799 13.606 6.38136 13.6061 2.88474C13.606 2.11527 13.145 1.54804 12.4191 1.42448C12.31 1.40948 12.2 1.40362 12.09 1.40696C9.59152 1.40606 7.09307 1.40523 4.59461 1.40447C4.47913 1.40731 4.36388 1.39249 4.25277 1.36053C3.98966 1.276 3.80675 1.01422 3.79521 0.735669C3.78871 0.597288 3.82301 0.46007 3.89377 0.341406C3.96453 0.222741 4.06856 0.127971 4.19268 0.0691066C4.24459 0.0442898 4.29813 0.0229606 4.35092 2.46763e-05L12.5278 0Z" fill="#B1B1B1"/>
</svg>
