<svg width="23" height="11" viewBox="0 0 23 11" fill="none" xmlns="http://www.w3.org/2000/svg">
<path d="M23 5.67768C22.8694 5.89776 22.7199 6.10636 22.5532 6.30117C21.0746 7.7686 19.5838 9.22408 18.0998 10.6863C17.9943 10.8075 17.8581 10.8988 17.7052 10.9509C17.5522 11.0029 17.388 11.0138 17.2293 10.9825C17.069 10.9557 16.9198 10.8839 16.7996 10.7758C16.6793 10.6676 16.5931 10.5277 16.551 10.3725C16.4994 10.2203 16.4926 10.0567 16.5314 9.90074C16.5702 9.74482 16.6531 9.60299 16.7703 9.49175C17.1594 9.10222 17.5544 8.71862 17.947 8.33248C18.5412 7.74815 19.1352 7.16376 19.7293 6.57929C19.7803 6.5291 19.8278 6.47547 19.9108 6.38759H19.6098C13.4109 6.38759 7.212 6.38756 1.01307 6.38748C0.507715 6.38748 0.166783 6.16772 0.0403896 5.76241C0.000298593 5.63496 -0.0101205 5.50021 0.00991095 5.36823C0.0299424 5.23624 0.0799067 5.11043 0.156072 5.00019C0.232238 4.88995 0.332639 4.79813 0.449774 4.73159C0.566908 4.66504 0.697751 4.62549 0.832533 4.61588C0.921931 4.60937 1.01212 4.61291 1.10194 4.61291C7.26342 4.61281 13.4249 4.61277 19.5864 4.6128H19.9102C19.8317 4.52944 19.7825 4.47375 19.7297 4.42176C18.7539 3.46149 17.7777 2.50164 16.801 1.54221C16.6748 1.42987 16.584 1.28394 16.5397 1.12193C16.4954 0.959917 16.4994 0.788716 16.5512 0.62888C16.593 0.473628 16.6791 0.333538 16.7994 0.225336C16.9196 0.117134 17.0688 0.0453916 17.2292 0.0186784C17.384 -0.0132682 17.5445 -0.00411343 17.6946 0.0452087C17.8446 0.0945308 17.9787 0.182257 18.0832 0.299444C19.1857 1.38547 20.2897 2.47007 21.3951 3.55326C21.7827 3.93385 22.1805 4.30494 22.553 4.69938C22.7167 4.89658 22.866 5.10491 23 5.32284V5.67768Z" fill="#41359F"/>
</svg>
