<svg width="30" height="30" viewBox="0 0 36 36" fill="none" xmlns="http://www.w3.org/2000/svg">
<path d="M27.0313 26.0018L25.9951 27.038C25.6622 27.2967 25.3378 27.5674 24.9949 27.8122C22.8397 29.3504 20.4361 30.1654 17.7887 30.1669C13.8176 30.1691 10.5314 28.6313 7.99252 25.5844C6.28819 23.5391 5.36509 21.1483 5.2113 18.4861C5.00705 14.9508 6.09558 11.8476 8.47503 9.22469C10.1342 7.39574 12.1805 6.16228 14.5836 5.57959C18.2779 4.68382 21.7134 5.30308 24.8571 7.45505C25.2506 7.72439 25.6185 8.03117 25.9982 8.3206L27.0341 9.35645C27.1441 9.49477 27.2539 9.63333 27.3644 9.77139C29.0551 11.885 30.0055 14.2901 30.1461 16.9949C30.2954 19.8669 29.5509 22.4969 27.8988 24.8594C27.6249 25.2509 27.3212 25.6215 27.0313 26.0018ZM25.1389 25.1483C29.2599 21.0309 29.2642 14.3484 25.1485 10.2176C21.0431 6.0973 14.3571 6.09134 10.2178 10.2044C6.08725 14.3086 6.08294 21.0348 10.2082 25.1523C14.3333 29.2697 21.0157 29.2679 25.1389 25.1483L25.1389 25.1483Z" fill="#313131"/>
<path d="M16.237 17.6189C16.0045 17.3864 15.7982 17.1802 15.592 16.974C14.9018 16.2835 14.207 15.5977 13.5235 14.9008C13.1596 14.5297 13.1258 14.0371 13.4099 13.6318C13.5346 13.4535 13.7173 13.324 13.9268 13.2654C14.1364 13.2068 14.3597 13.2227 14.5587 13.3105C14.7118 13.3849 14.851 13.485 14.9702 13.6065C15.786 14.4128 16.5949 15.2262 17.406 16.0373L17.6123 16.2436L17.8301 16.0259C18.6357 15.2203 19.4428 14.4161 20.2461 13.6082C20.5204 13.3324 20.8335 13.1657 21.2306 13.2502C21.4005 13.2798 21.5586 13.3568 21.6867 13.4723C21.8147 13.5877 21.9076 13.7371 21.9545 13.903C22.0718 14.2781 21.9825 14.6125 21.7069 14.8896C20.869 15.732 20.0276 16.5709 19.1876 17.4112C19.1256 17.4732 19.0636 17.5352 18.9838 17.615C19.0615 17.6928 19.123 17.7542 19.1845 17.8158C20.0128 18.6442 20.8445 19.4692 21.6683 20.3022C22.1917 20.8315 22.0784 21.6157 21.4456 21.9156C21.0586 22.099 20.6343 22.0129 20.2878 21.6682C19.463 20.8478 18.6418 20.0237 17.8192 19.2012L17.6084 18.9904C17.5365 19.0623 17.4756 19.1232 17.4146 19.1842C16.5686 20.0299 15.7244 20.8775 14.8754 21.7203C14.7533 21.8434 14.6004 21.9314 14.4326 21.975C14.2648 22.0187 14.0884 22.0164 13.9219 21.9684C13.7553 21.9204 13.6048 21.8285 13.486 21.7023C13.3673 21.5761 13.2847 21.4202 13.2469 21.2511C13.1567 20.8551 13.3156 20.5383 13.5918 20.2631C14.399 19.459 15.2048 18.6536 16.0092 17.8467L16.237 17.6189Z" fill="#313131"/>
</svg>
