<svg width="20" height="20" viewBox="0 0 30 30" fill="none" xmlns="http://www.w3.org/2000/svg">
<path d="M15.8736 30H14.1152C13.6131 29.937 13.1082 29.8915 12.6095 29.8082C9.47556 29.2847 6.7445 27.9368 4.49682 25.6916C1.12532 22.3239 -0.358219 18.2306 0.0728191 13.4909C0.362167 10.3092 1.60757 7.49729 3.73599 5.10788C6.56252 1.93472 10.1193 0.225274 14.3639 0.0186558C17.3237 -0.125414 20.1067 0.564349 22.6402 2.10899C26.535 4.48361 28.9247 7.92418 29.7662 12.4177C29.8715 12.9802 29.9234 13.5526 30 14.1204V15.8783C29.976 16.0891 29.9516 16.2998 29.9282 16.5107C29.5693 19.7388 28.335 22.586 26.1592 25.0004C23.8489 27.564 20.9856 29.164 17.5791 29.7667C17.0145 29.8666 16.4423 29.9233 15.8736 30ZM14.9921 27.67C21.9826 27.6731 27.6565 22.0064 27.6693 15.0091C27.682 8.02935 22.0138 2.35103 15.0114 2.3287C8.02399 2.30641 2.31302 8.01007 2.31954 15.0043C2.32605 21.9983 7.99782 27.667 14.9921 27.67H14.9921Z" fill="#41359F"/>
<path d="M13.8272 13.7275C13.8272 13.333 13.8272 12.983 13.8272 12.633C13.8275 11.4615 13.8199 10.29 13.8312 9.11859C13.8372 8.49499 14.2267 8.04832 14.8116 7.94549C15.0687 7.89997 15.3336 7.9451 15.5612 8.07317C15.7887 8.20124 15.9646 8.4043 16.059 8.64765C16.1258 8.84066 16.1589 9.04371 16.157 9.24795C16.1651 10.6244 16.1613 12.0009 16.1613 13.3774V13.7275H16.5308C17.898 13.7275 19.2652 13.73 20.6323 13.7262C21.0991 13.7249 21.5062 13.8491 21.7715 14.2578C21.8905 14.4271 21.9594 14.6265 21.97 14.8332C21.9807 15.0398 21.9328 15.2453 21.8318 15.4259C21.613 15.8437 21.2536 16.0517 20.7845 16.053C19.3588 16.0569 17.933 16.0547 16.5072 16.0549C16.402 16.0549 16.2968 16.0549 16.1613 16.0549C16.1613 16.1868 16.1613 16.2912 16.1613 16.3956C16.1612 17.8014 16.1669 19.2072 16.1591 20.6129C16.1541 21.5063 15.3925 22.0755 14.6011 21.793C14.1171 21.6203 13.8301 21.1872 13.8286 20.6007C13.8248 19.2047 13.8273 17.8087 13.8273 16.4127V16.055C13.7052 16.055 13.6018 16.055 13.4984 16.055C12.0629 16.0547 10.6273 16.0576 9.19183 16.0523C8.98377 16.0531 8.77931 15.998 8.5999 15.8927C8.4205 15.7874 8.27274 15.6358 8.17214 15.4537C8.07154 15.2717 8.0218 15.066 8.02812 14.8581C8.03445 14.6502 8.09662 14.4479 8.20811 14.2723C8.46755 13.8598 8.87119 13.7258 9.33913 13.7267C10.7063 13.7293 12.0735 13.7296 13.4407 13.7276L13.8272 13.7275Z" fill="#41359F"/>
</svg>
