<svg width="19" height="12" viewBox="0 0 22 15" fill="none" xmlns="http://www.w3.org/2000/svg">
<path d="M21.5625 10.4755C21.4521 10.9098 21.3809 11.3575 21.2247 11.7762C20.5216 13.6605 18.5901 15.0296 16.5013 14.9995C15.1683 14.9803 13.8347 14.9959 12.5013 14.9959H12.2345V10.5236C12.6481 10.5236 13.0532 10.5237 13.4582 10.5235C13.7302 10.5235 14.0211 10.5668 14.176 10.2696C14.3253 9.98309 14.1264 9.78608 13.9714 9.58084C13.0637 8.37865 12.1555 7.17689 11.2466 5.97554C10.9397 5.56984 10.6168 5.56972 10.3107 5.97464C9.37773 7.209 8.44507 8.44358 7.51274 9.67838C7.47467 9.7265 7.4393 9.77652 7.40679 9.82823C7.21354 10.1518 7.41092 10.5077 7.80168 10.5189C8.22936 10.5311 8.65773 10.5229 9.08579 10.5236C9.16129 10.5237 9.23679 10.5236 9.32543 10.5236V14.9959H9.07879C7.54893 14.9959 6.01902 14.9885 4.48922 14.998C2.96984 15.0074 1.80265 14.3661 0.923594 13.2245C0.186878 12.2677 -0.126859 11.1805 0.0467578 9.99611C0.220617 8.81002 0.830895 7.85923 1.84693 7.15239C1.90234 7.1112 1.96082 7.07393 2.02192 7.0409C2.13878 6.98247 2.16679 6.9142 2.12663 6.78268C1.98579 6.33942 1.96 5.87001 2.05147 5.41507C2.14295 4.96013 2.34894 4.53338 2.65163 4.17174C2.95431 3.8101 3.34456 3.52448 3.7886 3.33959C4.23264 3.15471 4.71709 3.07613 5.20002 3.11067C5.46315 3.12742 5.72262 3.1968 5.99409 3.24357C6.17515 2.9662 6.34375 2.65603 6.56194 2.382C8.02158 0.548955 9.95334 -0.263383 12.3423 0.0750772C14.8632 0.432231 16.819 2.26249 17.2773 4.65248C17.3515 5.03903 17.4914 5.17323 17.877 5.29198C19.983 5.94052 21.1573 7.36845 21.5185 9.43574C21.5299 9.50083 21.5477 9.56489 21.5625 9.62943L21.5625 10.4755Z" fill="white"/>
</svg>
