<svg width="24" height="23" viewBox="0 0 24 23" fill="none" xmlns="http://www.w3.org/2000/svg">
<path d="M0 13.8294V5.11367C0.0179581 5.06283 0.0321067 5.01073 0.0423156 4.95779C0.203562 3.5987 0.856174 2.34547 1.87724 1.43413C2.89831 0.522793 4.21736 0.0162405 5.58596 0.00987957C9.85723 -0.00329319 14.1285 -0.00329319 18.3999 0.00987957C19.8781 0.0136578 21.2949 0.601493 22.3416 1.6453C23.3884 2.68911 23.9801 4.1043 23.988 5.5825C24.004 8.17485 24.004 10.7673 23.988 13.3598C23.9804 14.834 23.3919 16.2458 22.3502 17.2889C21.3085 18.332 19.8975 18.9224 18.4234 18.9319C14.1365 18.9489 9.84958 18.9491 5.56262 18.9324C4.35456 18.9237 3.18182 18.5238 2.22008 17.7927C1.25834 17.0616 0.55937 16.0385 0.227852 14.8768C0.12955 14.5341 0.0748378 14.1789 0 13.8294ZM11.996 17.0627C14.1124 17.0627 16.2289 17.0671 18.3453 17.0615C18.8406 17.0653 19.3318 16.9707 19.7903 16.7832C20.2488 16.5957 20.6655 16.3191 21.0162 15.9693C21.367 15.6196 21.6448 15.2036 21.8336 14.7457C22.0224 14.2877 22.1183 13.7968 22.1159 13.3015C22.1223 10.7477 22.1223 8.19393 22.1159 5.64012C22.1185 5.14478 22.0226 4.65386 21.8338 4.19589C21.645 3.73792 21.3671 3.32202 21.0163 2.97234C20.6654 2.62267 20.2486 2.34619 19.79 2.15897C19.3314 1.97175 18.8401 1.87751 18.3448 1.88174C14.1119 1.87728 9.87907 1.87728 5.64618 1.88174C5.14885 1.87761 4.65569 1.97271 4.19557 2.16149C3.73544 2.35026 3.3176 2.62891 2.96646 2.98113C2.61533 3.33334 2.33797 3.75206 2.15063 4.21277C1.96328 4.67347 1.8697 5.16692 1.87536 5.66423C1.8714 8.20237 1.87216 10.7405 1.87764 13.2787C1.87651 13.5362 1.90134 13.7931 1.95173 14.0456C2.11879 14.9005 2.57968 15.67 3.25452 16.2209C3.92936 16.7717 4.77563 17.0691 5.6467 17.0615C7.7631 17.0664 9.87955 17.0627 11.996 17.0627Z" fill="#131313"/>
<path d="M12.005 22.6858C10.5144 22.6858 9.02385 22.6891 7.53312 22.6843C7.37043 22.691 7.20881 22.6551 7.06431 22.58C6.91981 22.505 6.79745 22.3934 6.70938 22.2565C6.62131 22.1195 6.5706 21.9619 6.56226 21.7993C6.55392 21.6367 6.58826 21.4747 6.66187 21.3295C6.74039 21.1662 6.86554 21.0298 7.02151 20.9376C7.17749 20.8454 7.35729 20.8015 7.53821 20.8114C8.88055 20.8116 10.2229 20.8116 11.5652 20.8114C13.2042 20.8114 14.8431 20.8119 16.482 20.8129C16.6989 20.8083 16.9106 20.8799 17.0802 21.0152C17.2497 21.1506 17.3665 21.3411 17.41 21.5537C17.4555 21.7534 17.4324 21.9625 17.3443 22.1474C17.2563 22.3323 17.1084 22.4821 16.9247 22.5725C16.7614 22.6443 16.585 22.6813 16.4066 22.6812C14.9394 22.6894 13.4723 22.6858 12.005 22.6858Z" fill="#131313"/>
</svg>
