<svg width="10" height="20" viewBox="0 0 11 27" fill="none" xmlns="http://www.w3.org/2000/svg">
<path d="M5.5644 0C5.76186 0.108153 5.91674 0.280132 6.0037 0.487793C6.88144 2.25506 7.76312 4.02036 8.64878 5.78369C8.95178 6.39039 8.71339 6.77064 8.03089 6.77094C6.27089 6.77167 4.51089 6.77167 2.75089 6.77094C2.07039 6.77094 1.83338 6.38909 2.13688 5.78149C3.01881 4.01629 3.90044 2.251 4.78178 0.485535C4.86895 0.278973 5.02334 0.107864 5.21989 0H5.5644ZM3.4918 5.60883H7.2931L5.39189 1.80884L3.4918 5.60883Z" fill="#4d4c4c"/>
<path d="M5.40051 19.8046C6.29961 19.8046 7.19882 19.8025 8.09802 19.8054C8.70422 19.8074 8.9399 20.1913 8.6668 20.7397C7.76594 22.5493 6.86298 24.3579 5.95791 26.1655C5.91765 26.2839 5.84271 26.3875 5.74285 26.4628C5.643 26.5381 5.52283 26.5817 5.39791 26.5878C5.27276 26.5852 5.15139 26.5444 5.05013 26.4708C4.94888 26.3972 4.8726 26.2944 4.83151 26.1762C3.92484 24.3586 3.01802 22.5413 2.11102 20.7241C1.84752 20.1941 2.0863 19.8078 2.6741 19.8055C3.583 19.802 4.49171 19.8046 5.40051 19.8046ZM7.29501 20.9531H3.4876L5.39321 24.7587L7.29501 20.9531Z" fill="#4d4c4c"/>
<path d="M5.36287 9.59506C4.45397 9.59506 1.54505 9.59506 0.636151 9.59506C0.516164 9.60668 0.395559 9.58047 0.29121 9.52011C0.186862 9.45975 0.10399 9.36826 0.0542414 9.25845C0.00780796 9.16277 -0.00909326 9.05542 0.00568796 8.9501C0.0204692 8.84478 0.0662717 8.74623 0.137249 8.66702C0.200958 8.59493 0.280614 8.53877 0.369885 8.5029C0.459155 8.46703 0.555564 8.45245 0.65144 8.46042C2.47884 8.45772 8.30634 8.45516 10.1337 8.46176C10.2152 8.45185 10.2978 8.45935 10.376 8.48379C10.4543 8.50824 10.5266 8.54901 10.5879 8.60348C10.6492 8.65795 10.6982 8.72485 10.7317 8.79971C10.7652 8.87458 10.7824 8.95573 10.7821 9.03775C10.7776 9.37775 10.5276 9.59232 10.1184 9.59372C9.19986 9.59722 6.28137 9.59506 5.36287 9.59506Z" fill="#4d4c4c"/>
<path d="M5.4111 14.1263C6.3296 14.1263 9.2481 14.1233 10.1665 14.1282C10.3018 14.1146 10.4375 14.1511 10.5477 14.2308C10.6579 14.3106 10.735 14.4279 10.7644 14.5607C10.7963 14.6776 10.7875 14.8019 10.7393 14.9131C10.6912 15.0243 10.6067 15.1159 10.4996 15.1726C10.3538 15.2457 10.1905 15.2765 10.0281 15.2613C8.8417 15.2613 5.65539 15.2613 4.46899 15.2613C3.90449 15.2613 1.34001 15.2627 0.775506 15.2601C0.670709 15.2605 0.566099 15.251 0.463097 15.2317C0.330043 15.2105 0.209517 15.1409 0.124627 15.0362C0.0397373 14.9316 -0.00353167 14.7993 0.00310597 14.6647C0.0088501 14.5345 0.0601878 14.4105 0.148156 14.3143C0.236124 14.2181 0.355122 14.156 0.484307 14.1387C0.61754 14.1254 0.751529 14.1215 0.885308 14.1268C1.72721 14.1257 4.5691 14.1262 5.4111 14.1263Z" fill="#4d4c4c"/>
<path d="M5.37389 18.0893C4.49389 18.0893 1.61341 18.0885 0.733112 18.0902C0.608703 18.0973 0.484094 18.0803 0.366108 18.0402C0.258468 18 0.165982 17.9272 0.101429 17.8322C0.036876 17.7371 0.00343175 17.6243 0.00572583 17.5094C0.00801992 17.3945 0.0459191 17.2832 0.114216 17.1907C0.182513 17.0983 0.277851 17.0294 0.387012 16.9934C0.506139 16.9575 0.630521 16.9421 0.75481 16.948C2.51541 16.9493 8.27599 16.9494 10.0365 16.948C10.1608 16.9422 10.2852 16.9584 10.4039 16.996C10.5126 17.0334 10.607 17.1035 10.6741 17.1968C10.7412 17.2902 10.7777 17.402 10.7784 17.5169C10.7792 17.6318 10.7442 17.7442 10.6784 17.8384C10.6126 17.9326 10.5191 18.004 10.4109 18.0428C10.2924 18.0811 10.1678 18.0972 10.0435 18.0901C9.15361 18.0887 6.26379 18.0893 5.37389 18.0893Z" fill="#4d4c4c"/>
<path d="M5.39301 12.4233C4.52301 12.4233 1.65301 12.4233 0.782414 12.4226C0.677331 12.4249 0.572202 12.4192 0.467992 12.4055C0.337114 12.3849 0.218041 12.3179 0.132512 12.2167C0.0469828 12.1155 0.000739304 11.987 0.00223232 11.8545C0.00372534 11.722 0.0528419 11.5945 0.14063 11.4953C0.228417 11.3961 0.349012 11.3318 0.480321 11.3141C0.57519 11.3025 0.67075 11.2978 0.766301 11.2999C2.5163 11.2991 8.2663 11.2991 10.0163 11.2999C10.1118 11.2978 10.2074 11.3025 10.3022 11.314C10.4361 11.3314 10.5589 11.3974 10.6474 11.4993C10.7359 11.6013 10.7839 11.7322 10.7824 11.8672C10.7808 12.0022 10.7298 12.1319 10.639 12.2319C10.5482 12.3318 10.4239 12.3949 10.2897 12.4094C10.1852 12.4205 10.0801 12.425 9.97501 12.4227C9.11431 12.4237 6.25361 12.4233 5.39301 12.4233Z" fill="#4d4c4c"/>
</svg>
