<svg width="20" height="20" viewBox="0 0 20 20" fill="none" xmlns="http://www.w3.org/2000/svg">
<circle cx="10" cy="10" r="10" fill="#E8E8E8"/>
<path d="M13.3254 12.3069L10.7744 9.75589L13.3206 7.20969C13.3889 7.14314 13.4433 7.06363 13.4806 6.97583C13.5179 6.88803 13.5374 6.79366 13.538 6.69819C13.5385 6.60273 13.5201 6.50808 13.4838 6.41973C13.4474 6.33138 13.3939 6.2511 13.3264 6.18353C13.2588 6.11596 13.1785 6.06245 13.0902 6.02612C13.0018 5.98979 12.9072 5.97137 12.8117 5.9719C12.7162 5.97244 12.6219 5.99193 12.5341 6.02925C12.4462 6.06656 12.3667 6.12096 12.3002 6.18928L9.75399 8.73549L7.20293 6.18442C7.0676 6.0491 6.88415 5.97298 6.69295 5.9728C6.50175 5.97262 6.31849 6.04846 6.18341 6.18353C6.04834 6.3186 5.9725 6.50186 5.97268 6.69306C5.97286 6.88426 6.04901 7.06769 6.18433 7.20302L8.7354 9.75408L6.18917 12.3003C6.12085 12.3669 6.06647 12.4463 6.02916 12.5341C5.99184 12.6219 5.97235 12.7163 5.97181 12.8118C5.97128 12.9072 5.9897 13.0019 6.02603 13.0902C6.06235 13.1786 6.11585 13.2589 6.18341 13.3265C6.25098 13.394 6.33129 13.4475 6.41964 13.4839C6.50799 13.5202 6.60264 13.5386 6.6981 13.5381C6.79356 13.5375 6.88794 13.518 6.97574 13.4807C7.06354 13.4434 7.14302 13.389 7.20957 13.3207L9.7558 10.7745L12.3068 13.3255C12.4421 13.4608 12.6256 13.537 12.8168 13.5371C13.008 13.5373 13.1913 13.4615 13.3264 13.3265C13.4614 13.1914 13.5372 13.0081 13.537 12.8169C13.5369 12.6257 13.4607 12.4422 13.3254 12.3069Z" fill="black"/>
</svg>
