<svg width="24" height="25" viewBox="0 0 24 25" fill="none" xmlns="http://www.w3.org/2000/svg">
<path d="M15.1915 0C16.2451 0.225275 17.2535 0.625808 18.1745 1.18491C20.482 2.46802 22.3032 4.47476 23.3572 6.89555C23.6579 7.46139 23.8653 8.07209 23.9714 8.70406C24.0333 9.19734 23.9945 9.69805 23.8573 10.1759C23.7201 10.6537 23.4874 11.0988 23.1732 11.4841C23.0149 11.6776 22.8452 11.8616 22.6652 12.0352C21.5314 13.167 20.3961 14.2974 19.2593 15.4262C18.8842 15.8272 18.4242 16.1394 17.913 16.3397C17.4018 16.5401 16.8522 16.6236 16.3045 16.5841C15.8692 16.5536 15.4418 16.4525 15.039 16.2847C14.3973 16.0002 13.7706 15.6831 13.1613 15.3346C13.0517 15.277 12.955 15.1977 12.877 15.1016C12.799 15.0055 12.7413 14.8945 12.7074 14.7755C12.6736 14.6564 12.6642 14.5317 12.6799 14.4089C12.6956 14.2862 12.7361 14.1678 12.7989 14.0611C12.9186 13.847 13.118 13.6889 13.3538 13.6212C13.5896 13.5535 13.8425 13.5817 14.0576 13.6997C14.5871 13.9657 15.106 14.2539 15.6407 14.5088C16.0094 14.7072 16.434 14.7762 16.8466 14.7048C17.2591 14.6334 17.6358 14.4258 17.9165 14.1151C19.1217 12.9222 20.3236 11.7258 21.5221 10.526C21.8217 10.2516 22.0241 9.88744 22.0988 9.48817C22.1736 9.08891 22.1167 8.67615 21.9367 8.31199C21.501 7.23178 20.9178 6.21712 20.2036 5.29694C19.1626 4.00931 17.8236 2.99449 16.3026 2.34012C15.9298 2.1635 15.5411 2.0227 15.1417 1.91964C14.8767 1.86278 14.6019 1.87 14.3402 1.94071C14.0785 2.01142 13.8375 2.14357 13.6372 2.32618C13.5586 2.39018 13.4851 2.46096 13.4132 2.53248C12.2548 3.68403 11.0969 4.83605 9.93945 5.98853C9.60534 6.27366 9.38201 6.66711 9.30849 7.10015C9.23497 7.53319 9.31593 7.97829 9.53722 8.35771C9.77212 8.83323 10.0229 9.30116 10.2756 9.76753C10.4256 9.9726 10.4901 10.228 10.4553 10.4797C10.4206 10.7314 10.2894 10.9597 10.0894 11.1165C7.41008 13.7974 4.7295 16.477 2.04769 19.1553C1.98852 19.2093 1.94204 19.2757 1.9116 19.3498C1.88115 19.4239 1.86749 19.5038 1.8716 19.5838C1.88063 20.3418 1.87545 21.1 1.87545 21.8581V22.1214H4.12598V21.6389C4.12598 21.2638 4.12333 20.8886 4.12668 20.5135C4.11687 20.3781 4.13647 20.2422 4.18413 20.1151C4.23179 19.9881 4.30639 19.8728 4.4028 19.7773C4.49921 19.6817 4.61515 19.6082 4.74266 19.5617C4.87017 19.5152 5.00624 19.4969 5.14151 19.5079C5.6649 19.5047 6.18831 19.5073 6.75159 19.5073V19.279C6.75159 18.8101 6.74806 18.3411 6.75269 17.8722C6.74458 17.7407 6.76438 17.609 6.81081 17.4857C6.85723 17.3625 6.92922 17.2504 7.02204 17.1569C7.11486 17.0635 7.2264 16.9907 7.34934 16.9434C7.47229 16.8961 7.60385 16.8754 7.73538 16.8826C8.57926 16.8773 9.42319 16.8773 10.2672 16.8826C10.3936 16.8763 10.5199 16.8957 10.6386 16.9396C10.7573 16.9834 10.8659 17.0509 10.9578 17.1378C11.0498 17.2248 11.1232 17.3294 11.1736 17.4455C11.224 17.5616 11.2504 17.6866 11.2511 17.8132C11.2519 17.9397 11.2271 18.0651 11.1781 18.1818C11.1291 18.2985 11.0571 18.404 10.9662 18.4921C10.8753 18.5802 10.7676 18.649 10.6494 18.6943C10.5313 18.7396 10.4052 18.7606 10.2787 18.7559C10.0054 18.7615 9.73177 18.757 9.45825 18.757H8.62707C8.62707 18.8567 8.62707 18.9467 8.62707 19.0366C8.62707 19.4821 8.62989 19.9276 8.62633 20.3731C8.63596 20.5085 8.61629 20.6444 8.56867 20.7716C8.52105 20.8987 8.4466 21.0141 8.35037 21.1099C8.25415 21.2056 8.13841 21.2795 8.01105 21.3265C7.88369 21.3736 7.74769 21.3926 7.61232 21.3823C7.08311 21.3862 6.55386 21.3831 6.00145 21.3831C6.00145 21.9035 6.00174 22.4015 6.00145 22.8994C6.00096 23.6478 5.64296 24.0089 4.8993 24.0092C3.65685 24.0097 2.41405 23.9956 1.17202 24.0154C0.918768 24.0498 0.661555 23.9926 0.446692 23.8542C0.231829 23.7158 0.0734266 23.5053 0 23.2605V18.7582C0.146147 18.5135 0.312362 18.2813 0.496917 18.064C3.04679 15.5001 5.60264 12.9421 8.16447 10.39C8.2289 10.3372 8.29987 10.2931 8.37561 10.2585C8.16204 9.81956 7.98377 9.46421 7.8152 9.10463C7.45173 8.38361 7.33068 7.56453 7.47006 6.7692C7.60943 5.97387 8.00178 5.24477 8.58876 4.69031C9.76347 3.51245 10.9423 2.33866 12.1251 1.16895C12.473 0.7966 12.8999 0.506825 13.3744 0.320858C13.738 0.192571 14.1162 0.105517 14.488 0H15.1915Z" fill="#131313"/>
<path d="M17.0577 8.06566C16.7618 8.06383 16.473 7.9744 16.2278 7.80867C15.9826 7.64293 15.7919 7.4083 15.6799 7.13437C15.5679 6.86044 15.5394 6.55946 15.5982 6.26939C15.657 5.97933 15.8004 5.71317 16.0102 5.50447C16.22 5.29576 16.487 5.15387 16.7774 5.09667C17.0678 5.03948 17.3686 5.06954 17.6419 5.18307C17.9152 5.29661 18.1488 5.48853 18.3132 5.73463C18.4776 5.98074 18.5654 6.27001 18.5656 6.56597C18.5638 6.96457 18.4041 7.34621 18.1214 7.6273C17.8388 7.90838 17.4563 8.06601 17.0577 8.06566Z" fill="#131313"/>
</svg>
