<svg width="24" height="25" viewBox="0 0 24 25" fill="none" xmlns="http://www.w3.org/2000/svg">
<path d="M5.61371 20.9178C5.6155 20.889 5.61761 20.8602 5.61909 20.8314C5.69549 19.4996 5.69587 19.4942 4.70835 18.6296C4.62379 18.5744 4.52268 18.5503 4.42232 18.5614C3.6925 18.6015 2.96314 18.6479 2.23425 18.7004C2.02757 18.7259 1.81814 18.6852 1.63603 18.5842C1.45392 18.4832 1.30851 18.3271 1.22067 18.1382C0.761588 17.3265 0.396054 16.4653 0.131071 15.5711C0.0640547 15.3793 0.057501 15.1715 0.112292 14.9757C0.167083 14.78 0.280583 14.6058 0.437481 14.4766C0.970863 13.9909 1.50105 13.5014 2.0192 12.9994C2.11101 12.8989 2.16541 12.7699 2.17324 12.6341C2.18951 12.2979 2.18537 11.961 2.16081 11.6253C2.15187 11.4984 2.09916 11.3785 2.01168 11.2861C1.48096 10.7978 0.941851 10.3185 0.394353 9.84817C0.228791 9.72217 0.106657 9.54767 0.0449663 9.34898C-0.0167241 9.15028 -0.0148976 8.93729 0.0501931 8.73968C0.293909 7.82938 0.645989 6.95161 1.09888 6.12521C1.18136 5.94994 1.3154 5.80405 1.48307 5.70704C1.65073 5.61004 1.84403 5.56655 2.03708 5.5824C2.7674 5.61283 3.49803 5.63866 4.22893 5.64473C4.37304 5.63472 4.50965 5.5768 4.61703 5.48017C4.84814 5.27852 5.04168 5.0339 5.27255 4.83183C5.34374 4.77768 5.39919 4.70552 5.43318 4.62279C5.46717 4.54006 5.47847 4.44976 5.4659 4.3612C5.40513 3.66182 5.36722 2.96049 5.31287 2.26048C5.28535 2.05409 5.32294 1.84426 5.4204 1.66026C5.51786 1.47627 5.67034 1.32729 5.85654 1.23412C6.67412 0.765991 7.54427 0.396334 8.4488 0.132876C8.63564 0.0657836 8.83856 0.0575965 9.03019 0.109418C9.22182 0.16124 9.39296 0.270576 9.52052 0.422687C10.0085 0.954082 10.5062 1.47679 10.9887 2.01282C11.0392 2.07505 11.1045 2.12349 11.1787 2.15361C11.2529 2.18374 11.3335 2.19457 11.413 2.1851C11.7389 2.16562 12.0675 2.1863 12.3928 2.16301C12.5192 2.15324 12.6383 2.09985 12.7297 2.01197C13.2106 1.48732 13.6823 0.954267 14.1447 0.412795C14.2749 0.238372 14.4571 0.109805 14.6651 0.0456444C14.873 -0.0185161 15.096 -0.0149545 15.3018 0.0558156C16.1916 0.300249 17.0508 0.644749 17.863 1.08272C18.0545 1.17593 18.2123 1.32635 18.3146 1.51317C18.4169 1.69998 18.4586 1.91397 18.434 2.12553C18.3989 2.82679 18.3702 3.5289 18.3611 4.23089C18.3693 4.37613 18.4261 4.5144 18.5224 4.62344C18.7303 4.8621 18.9767 5.06683 19.1918 5.29972C19.2434 5.36135 19.3098 5.40879 19.3849 5.43755C19.4599 5.46632 19.541 5.47545 19.6206 5.46408C20.3296 5.40529 21.0402 5.36411 21.75 5.31292C21.9569 5.27881 22.1693 5.31412 22.354 5.41334C22.5388 5.51257 22.6855 5.67015 22.7714 5.8615C23.145 6.681 23.4916 7.51292 23.8408 8.34316C23.9348 8.56218 23.9516 8.80667 23.8884 9.03649C23.8251 9.26631 23.6856 9.4678 23.4928 9.60787C22.991 10.0715 22.4861 10.5315 21.9974 11.0085C21.8962 11.113 21.8355 11.2501 21.826 11.3953C21.7652 11.7935 21.7884 12.1999 21.894 12.5886C22.0438 12.9176 22.4462 13.1325 22.7399 13.395C23.0337 13.6576 23.329 13.9196 23.6274 14.1775C23.7828 14.3013 23.8973 14.4691 23.956 14.659C24.0146 14.8488 24.0147 15.052 23.9561 15.2419C23.7212 16.1846 23.3603 17.0914 22.8832 17.9378C22.7903 18.1082 22.6485 18.247 22.4761 18.3362C22.3037 18.4254 22.1086 18.461 21.9158 18.4385C21.2047 18.4079 20.493 18.3908 19.7823 18.3528C19.6925 18.3411 19.6013 18.3545 19.5186 18.3914C19.4359 18.4283 19.365 18.4873 19.3137 18.5619C19.2383 18.6853 19.1432 18.7955 19.0321 18.8881C18.8375 19.0246 18.6895 19.2176 18.6082 19.441C18.5269 19.6643 18.5161 19.9073 18.5774 20.137C18.6464 20.6896 18.6599 21.2492 18.6943 21.806C18.721 22.0044 18.6826 22.2061 18.5849 22.3808C18.4872 22.5555 18.3354 22.6938 18.1524 22.7749C17.3248 23.1528 16.4883 23.5111 15.6429 23.8497C15.4335 23.942 15.1989 23.9602 14.9777 23.9014C14.7566 23.8426 14.5621 23.7102 14.4262 23.5261C13.9685 23.0065 13.4822 22.5124 13.0175 21.9989C12.968 21.9359 12.9028 21.887 12.8285 21.8571C12.7541 21.8271 12.6733 21.8172 12.5939 21.8283C12.2787 21.8562 11.9589 21.833 11.644 21.8634C11.4995 21.8749 11.3631 21.9344 11.2565 22.0325C10.7858 22.5402 10.3268 23.0587 9.87932 23.5879C9.75182 23.7585 9.57465 23.8856 9.37209 23.9516C9.16954 24.0176 8.95154 24.0193 8.74797 23.9565C7.80702 23.7159 6.90188 23.3523 6.05593 22.8752C5.90558 22.7964 5.781 22.6761 5.69699 22.5285C5.61298 22.381 5.57305 22.2125 5.58196 22.0429C5.58539 21.6679 5.5827 21.2928 5.5827 20.9178H5.61371ZM3.7998 7.52335L3.79961 7.49706C3.43449 7.48081 3.06878 7.47224 2.70448 7.4447C2.63949 7.43051 2.57153 7.44241 2.51524 7.47784C2.45894 7.51326 2.41881 7.56938 2.40349 7.63411C2.29051 7.94017 2.17051 8.24409 2.03809 8.54209C2.00183 8.60882 1.99289 8.68703 2.01317 8.76022C2.03344 8.83342 2.08135 8.89588 2.14679 8.93444C2.65746 9.37315 3.1543 9.82803 3.66446 10.2674C3.79642 10.3789 3.89989 10.5203 3.96629 10.6798C4.03269 10.8394 4.0601 11.0124 4.04625 11.1846C4.03402 11.7985 4.05151 12.4141 4.08408 13.0274C4.10233 13.1996 4.07923 13.3736 4.01671 13.5351C3.95419 13.6965 3.85405 13.8407 3.72461 13.9557C3.21944 14.4154 2.72575 14.8877 2.21691 15.3432C2.15378 15.385 2.10932 15.4496 2.09291 15.5234C2.0765 15.5973 2.08942 15.6746 2.12894 15.7392C2.26327 16.026 2.38888 16.3168 2.50575 16.6117C2.5248 16.6801 2.56947 16.7386 2.6305 16.775C2.69152 16.8114 2.76422 16.823 2.83351 16.8072C3.53348 16.7544 4.23485 16.7201 4.93525 16.673C5.10307 16.6623 5.271 16.692 5.42501 16.7595C5.57902 16.827 5.71463 16.9304 5.8205 17.061C6.22634 17.4953 6.64604 17.9196 7.09102 18.313C7.2378 18.429 7.35375 18.5794 7.42861 18.7508C7.50347 18.9223 7.53494 19.1095 7.52023 19.296C7.48349 19.9587 7.4771 20.623 7.44169 21.2858C7.42731 21.3601 7.44197 21.437 7.48265 21.5008C7.52333 21.5646 7.58692 21.6104 7.66032 21.6287C7.94823 21.7355 8.23314 21.8502 8.51507 21.9729C8.58409 22.014 8.66649 22.0263 8.74449 22.0071C8.82248 21.988 8.88981 21.9389 8.93193 21.8705C9.33258 21.3907 9.76954 20.9409 10.1636 20.4563C10.3028 20.2787 10.4861 20.1405 10.6952 20.0556C10.9043 19.9707 11.132 19.9419 11.3557 19.9723C11.8829 20.0049 12.4118 19.9959 12.9376 19.9456C13.1373 19.9168 13.3409 19.9394 13.5293 20.0114C13.7177 20.0834 13.8846 20.2024 14.0141 20.357C14.4381 20.8294 14.8822 21.284 15.3036 21.7586C15.3267 21.797 15.357 21.8305 15.393 21.8571C15.4289 21.8838 15.4698 21.903 15.5132 21.9139C15.5566 21.9247 15.6018 21.9269 15.646 21.9203C15.6903 21.9136 15.7328 21.8983 15.7711 21.8753C16.0376 21.7435 16.3139 21.6304 16.5905 21.5207C16.6638 21.501 16.7266 21.4538 16.7661 21.389C16.8056 21.3242 16.8187 21.2467 16.8027 21.1725C16.7482 20.4629 16.7126 19.7518 16.6677 19.0415C16.6585 18.8972 16.6818 18.7526 16.736 18.6186C16.7902 18.4845 16.8738 18.3644 16.9807 18.267C17.4423 17.8057 17.903 17.3433 18.3546 16.8723C18.4593 16.7464 18.5917 16.6466 18.7416 16.5807C18.8914 16.5148 19.0545 16.4846 19.218 16.4926C19.6211 16.5175 20.0254 16.5226 20.4289 16.5417C21.5988 16.5972 21.5959 16.5973 21.9732 15.4809C22.0068 15.4144 22.015 15.3379 21.9963 15.2657C21.9776 15.1935 21.9332 15.1307 21.8715 15.0889C21.3652 14.6598 20.8719 14.2155 20.3761 13.7743C20.2361 13.6567 20.1254 13.5081 20.053 13.3403C19.9805 13.1724 19.9483 12.99 19.9588 12.8075C19.9759 12.2129 19.9562 11.6167 19.9362 11.0218C19.9177 10.8352 19.9441 10.6468 20.0131 10.4724C20.0821 10.298 20.1918 10.1426 20.333 10.0192C20.8316 9.58161 21.3061 9.11629 21.7982 8.67104C21.8584 8.63256 21.9014 8.57226 21.9181 8.50279C21.9348 8.43332 21.924 8.36008 21.8878 8.29843C21.7491 8.00317 21.622 7.7019 21.5037 7.39783C21.4836 7.32945 21.4381 7.27135 21.3765 7.23552C21.3149 7.19968 21.2419 7.18882 21.1726 7.20518C20.4821 7.25641 19.7906 7.29413 19.1 7.34216C18.9563 7.35972 18.8104 7.34489 18.6732 7.29876C18.536 7.25263 18.4108 7.17637 18.3069 7.07556C17.8082 6.58282 17.3103 6.08935 16.8132 5.59514C16.7028 5.49445 16.6163 5.37029 16.5601 5.23179C16.504 5.09329 16.4795 4.94396 16.4886 4.79477C16.5107 4.3914 16.5195 3.9872 16.5279 3.58316C16.5357 3.21944 16.6733 2.75436 16.5012 2.51854C16.3074 2.25327 15.8272 2.20267 15.4786 2.04301C15.2929 1.95797 15.1875 2.01804 15.0651 2.16164C14.6345 2.6667 14.1853 3.15579 13.753 3.65941C13.6424 3.79217 13.5017 3.89663 13.3426 3.96411C13.1834 4.03159 13.0105 4.06014 12.8382 4.04739C12.2244 4.03571 11.609 4.05187 10.9959 4.08518C10.824 4.10503 10.6499 4.0834 10.4882 4.02211C10.3264 3.96082 10.1817 3.86166 10.0661 3.73292C9.6003 3.22035 9.12287 2.71832 8.65622 2.20652C8.62132 2.1499 8.56624 2.10863 8.5021 2.09102C8.43796 2.07342 8.36953 2.08079 8.31062 2.11166C8.0122 2.24295 7.70544 2.35577 7.40008 2.4707C7.33091 2.49015 7.27182 2.53535 7.23495 2.59702C7.19807 2.65869 7.18622 2.73214 7.20182 2.80228C7.25476 3.5024 7.28862 4.20393 7.34063 4.90413C7.3549 5.07641 7.32739 5.2496 7.26044 5.40898C7.19349 5.56836 7.08908 5.70924 6.95607 5.81966C6.50921 6.24006 6.07849 6.67959 5.66592 7.13373C5.55894 7.26333 5.42322 7.3662 5.26954 7.43419C5.11585 7.50217 4.94844 7.5334 4.78058 7.52538C4.45384 7.51533 4.1267 7.52335 3.7998 7.52335Z" fill="#131313"/>
<path d="M12.0048 16.6235C11.3973 16.6229 10.7959 16.5028 10.235 16.2698C9.67397 16.0368 9.16439 15.6956 8.73531 15.2656C8.30624 14.8356 7.96608 14.3253 7.73426 13.7638C7.50245 13.2024 7.38352 12.6007 7.38428 11.9933C7.39258 10.7715 7.88264 9.60238 8.748 8.73986C9.61336 7.87734 10.7841 7.39112 12.0059 7.38684C12.6134 7.38797 13.2147 7.50884 13.7754 7.74252C14.3362 7.9762 14.8453 8.31812 15.2739 8.74873C15.7024 9.17933 16.0418 9.69018 16.2727 10.2521C16.5037 10.8139 16.6216 11.4158 16.6198 12.0233C16.6171 13.2451 16.1295 14.4158 15.2642 15.2784C14.3989 16.1409 13.2266 16.6247 12.0048 16.6235ZM14.7716 11.9977C14.7679 11.2637 14.4736 10.561 13.9532 10.0433C13.4328 9.52561 12.7285 9.23509 11.9944 9.23527C11.2605 9.24275 10.5591 9.53905 10.0421 10.06C9.52514 10.5809 9.23418 11.2846 9.23228 12.0185C9.23801 12.7525 9.53391 13.4543 10.0554 13.9708C10.5768 14.4874 11.2815 14.7766 12.0154 14.7753C12.3789 14.7744 12.7386 14.7017 13.074 14.5615C13.4094 14.4214 13.7138 14.2164 13.9698 13.9584C14.2258 13.7004 14.4284 13.3944 14.566 13.0579C14.7036 12.7215 14.7735 12.3612 14.7716 11.9977Z" fill="#131313"/>
</svg>
